<?xml version="1.0" encoding="utf-8"?>
<!-- Generator: Adobe Illustrator 22.1.0, SVG Export Plug-In . SVG Version: 6.00 Build 0)  -->
<svg version="1.1" id="Layer_1" xmlns="http://www.w3.org/2000/svg" xmlns:xlink="http://www.w3.org/1999/xlink" x="0px" y="0px"
	 viewBox="0 0 800 600" style="enable-background:new 0 0 800 600;" xml:space="preserve">
<style type="text/css">
	.st0{fill:#FFFFFF;}
</style>
<g>
	<path class="st0" d="M667.1,196.2c0,111.9,0,223.9,0,335.8c-118.6,0-237.1,0-355.7,0c3.9-0.7,7.7-1.8,11.7-2.2
		c49.5-4.5,92.8-23.4,129.4-56.6c57.3-52,80.9-117.6,74.7-194.2c-0.8-9.4-3.3-18.7-5-28.1c-1.2-0.1-2.4-0.2-3.6-0.3
		c4,68.8-20.2,124.5-74.4,166.8c5.4-22.8,12.1-44.5,15.4-66.7c3.3-22.5,2.2-45.4-6.8-67.3c0.9,29.4-2.6,57.8-15.8,84.4
		c-13.4,26.8-32.4,48.3-57.8,62.9c4.7-19.3,10.2-38.1,13.6-57.3c3.9-22.7-0.5-49-9.3-58.7c4.7,28.2,0.1,53.1-12.4,76.2
		c-12.8,23.6-31.4,40.8-56,51.2c4-16.1,8.7-31.1,11.4-46.6c3-17.6-2.5-40.2-9.1-44.9c0.9,55.6-26.6,97-65.3,97.3
		c8.9-21.7,11.2-43-2.1-63.7c6.9,21,8.5,41.8-2.8,61.9c-11.5,20.6-29.3,32.1-52.6,34.3c-35.2,3.3-67.8-25.2-70.1-61
		c-1.2-18,4.2-34.1,16.4-47.5c22.4-24.7,50-27.3,80.5-17c-9.3-7.9-20-10.2-31.1-9.3c-11.2,0.9-22.3,3.4-34.3,5.4
		c5-22.4,17.3-39.4,36.3-52c19.1-12.6,40.5-13.3,62.3-13.1c-31.1-13.3-61.3-8.8-91.3,4.3c25-53,67.7-74.7,124.8-71.9
		c-19-7.9-38.3-10.2-57.5-6.9c-19.1,3.3-37.7,9.3-57.3,14.3c34.9-53.8,84.5-77.2,147.8-74.6c-45.8-14.4-89.7-7.8-133,10.5
		c41.6-56,97.9-80.1,167.1-77.6c-4.2-2.6-8.1-3.8-12.2-4.5c-10.4-1.7-20.9-3.1-31.3-4.6c118.6,0,237.1,0,355.7,0
		c0,39.2,0,78.2,0,117.2c-13.2-16.8-26.2-33.8-39.7-50.4c-5.6-6.8-12.1-12.8-18.6-18.8c-5.4-4.9-11.3-6.5-17.3,2.7
		c-3.3-16.5-14.7-16.6-26.6-17.1c0,1.9-0.3,3.8,0,5.6c1.7,9.3,4.7,18.6,4.9,28c0.2,8.1,2.1,14,8.9,18.3c-4.1-1.4-8.2-2.7-12.7-4.2
		c0.3-4,0.7-8.9,1.1-13.8c0.7-7.9-3.3-12.1-10.8-12.3c-7.8-0.1-8.6,6-8.3,11.9c0.8,15.3,1,30.8,3.1,46c2.7,19.1,7,38.1,11,57
		c0.8,3.7,3.5,7,5.4,10.6c1-0.2,1.9-0.3,2.9-0.5c0.9-4.7,2.4-9.3,2.6-14c0.4-12.2-0.2-24.5,0.4-36.7c0.3-5.4,1.2-11.6,4.1-16
		c6.2-9.4,4.6-18.4,1.4-27.9c8.4,2.2,16.7,3.6,24-3.9c0.4,1.2,0.8,2.5,1.2,3.7c-6.1,2.4-12.2,4.8-21,8.3c1.4,4.1,2.9,9.8,5.2,15.2
		c4.1,9.3,13.6,16.3,10,28.7c-1.2,4.1,0.3,9.3,1.7,13.5c1,3,4,5.4,6.1,8.1c0.8-0.6,1.6-1.2,2.4-1.8c0-6.3,0-12.6,0-18.9
		c1.1-0.2,2.2-0.4,3.3-0.7c7.7,19.3,15.4,38.6,23.2,58c0.6-0.2,1.1-0.5,1.7-0.7c-9.2-35.7-18.4-71.4-27.4-106.6
		c2.8,1.9,5.4,4.1,8.4,5.5c6.3,3,13.1,5,19.2,8.5C647.2,183.4,657.1,190,667.1,196.2z M401.5,228.6c6.8-7.4,13.6-14.8,21.5-23.4
		c-4,0-6.7-0.8-7.6,0.1c-5.2,5.5-10.3,11.3-14.8,17.3c-0.8,1.1,0.7,4,1.1,6.1c-2.2,0.1-5.2-0.7-6.4,0.5
		c-6.1,5.7-11.8,11.8-17.6,17.8c0.6,0.6,1.2,1.3,1.8,1.9C386.8,242.1,394.2,235.3,401.5,228.6z M476.5,106.2
		c1.3,16.8,3.7,19.7,19.7,21.4c-4.8,7.5-9.3,14.6-13.9,21.8c2.9,0.7,5.3,1.2,7.4,1.7c0,9.1,0,17.5,0,25.9
		c-1.8-7.8-3.7-15.5-6.1-25.9c-6.3,4.4-12.6,8.7-18.8,13.1c1.1,0.4,2.2,0.7,3.2,1.1c0,5.1,0.9,10.5-0.2,15.3
		c-2.1,9.6-5.8,18.8-8,28.4c-1.2,5.2-0.8,10.8-1.1,16.2c1.2,0.3,2.4,0.6,3.5,0.9c8.3-12.1,16.8-24,24.5-36.4c2.2-3.6,2-8.7,2.9-13.1
		c1.6-0.2,4.5,0,4.8-0.7c5.2-16.1,10.6-32.2,14.7-48.7c0.5-2.1-7.5-8.9-8.6-8.3c-7.9,4.5-12.8,2-17.2-4.7c-1.9-2.9-4.6-5.2-6.9-7.8
		c-0.8-11.7-8.1-17.8-19-14.2c-13.8,4.5-27.1,10.5-40.4,16.2c-1.3,0.6-1.3,4.3-1.9,6.6c-4.6,0.5-9.7-0.2-13.6,1.6
		c-12.2,5.8-23.9,12.6-35.7,19c-5,2.7-9.9,5.5-14.8,8.2c0.3,1,0.7,2,1,3c7.6,0,15.5,1.2,22.8-0.2c13.9-2.6,27.4-7.1,41.2-10.1
		c13.8-3,17.5-0.5,22.1,12.7c-10.1,9.3-20.3,18.6-30.4,27.9c0.6,0.6,1.3,1.3,1.9,1.9c1.9-1.7,4-3.3,5.8-5.2
		c7.6-8.2,15.1-16.4,22.7-24.6c3.4-6.8,6.7-13.7,10.5-21.2c-5.4-9.7-5.5-9.2-18.3-9.3c-5.1,0-10.3-2.5-15.4-3.9
		c10.7,0.8,21.4,1.6,32.4,2.5c1.3,2.6,2.7,5.7,4.2,8.8C460.1,119.1,468.3,112.6,476.5,106.2z M409.5,187.9
		c-26,6.6-33,31.9-47.4,50.2C377.9,221.4,393.6,204.7,409.5,187.9z M623.4,281.1c1.2-0.5,2.4-1.1,3.6-1.6
		c-6-13.9-11.9-27.9-17.9-41.8c-1.2,0.5-2.4,1-3.7,1.5C611.5,253.1,617.5,267.1,623.4,281.1z M481.4,107c6.9-5.7,11.9-9.7,16.8-13.7
		c-4.2-0.6-7.1,0.3-10,1.1c-2.9,0.7-7.2,0.3-8.4,2.1C478.6,98.3,480.5,102.1,481.4,107z"/>
	<path d="M311.4,75c10.4,1.5,20.9,2.9,31.3,4.6c4,0.7,8,1.9,12.2,4.5c-69.2-2.4-125.5,21.6-167.1,77.6c43.3-18.2,87.2-24.8,133-10.5
		c-63.3-2.6-112.9,20.9-147.8,74.6c19.7-5,38.3-11,57.3-14.3c19.2-3.3,38.6-1,57.5,6.9c-57.2-2.8-99.9,18.9-124.8,71.9
		c30-13.1,60.2-17.6,91.3-4.3c-21.8-0.2-43.3,0.5-62.3,13.1c-19,12.6-31.3,29.6-36.3,52c12-1.9,23.1-4.4,34.3-5.4
		c11.1-0.9,21.8,1.4,31.1,9.3c-30.5-10.3-58-7.7-80.5,17c-12.1,13.3-17.5,29.5-16.4,47.5c2.4,35.8,34.9,64.3,70.1,61
		c23.3-2.2,41.1-13.7,52.6-34.3c11.3-20.2,9.6-40.9,2.8-61.9c13.3,20.6,10.9,42,2.1,63.7c38.7-0.3,66.1-41.7,65.3-97.3
		c6.7,4.7,12.1,27.3,9.1,44.9c-2.6,15.4-7.4,30.5-11.4,46.6c24.6-10.4,43.2-27.6,56-51.2c12.5-23.1,17.1-48,12.4-76.2
		c8.9,9.7,13.3,36,9.3,58.7c-3.3,19.2-8.9,38.1-13.6,57.3c25.4-14.6,44.4-36.1,57.8-62.9c13.3-26.6,16.7-54.9,15.8-84.4
		c9,21.9,10.2,44.8,6.8,67.3c-3.3,22.2-10,43.9-15.4,66.7c54.2-42.3,78.3-98,74.4-166.8c1.2,0.1,2.4,0.2,3.6,0.3
		c1.7,9.4,4.3,18.7,5,28.1c6.1,76.6-17.4,142.2-74.7,194.2c-36.6,33.2-79.9,52.2-129.4,56.6c-3.9,0.4-7.8,1.4-11.7,2.2
		c-7.3,0-14.6,0-21.9,0c-8.7-1.4-17.5-2.9-26.2-4.2C175.5,513.9,102.1,446.5,81.2,360c-3.5-14.7-5.5-29.7-8.3-44.6
		c0-7.9,0-15.9,0-23.8c0.7-3.2,1.8-6.4,2.1-9.6c9-93.7,71.9-170.5,162.3-196.7c17-4.9,34.7-6.9,52.1-10.3
		C296.9,75,304.1,75,311.4,75z M522.3,295.6c-0.9,3.2-2,6.3-2.6,9.5c-10,50.8-36.9,90.5-79,120.4c-4.7,3.3-8.9,7.8-12.3,12.5
		c-32.7,45.7-76.3,73.5-132.4,79.8c-15.5,1.7-31.3,0.3-49.9,0.3c44.7,16.8,123,11.1,180.9-30.1C493,440.8,524.3,376,522.3,295.6z
		 M86.6,357.1c0.1-1.3,0.3-2.6,0.2-3.9c-7-73.4,19.7-131.7,78.2-176.1c6.2-4.7,11.9-10.4,16.5-16.6c16.9-23,36.8-43,62.5-55.5
		c20.5-9.9,42.5-16.9,62.8-24.8c-67.3-1.4-125.6,22.7-171.4,74.1C83.5,212.7,68,281.2,86.6,357.1z M230.4,509.2
		c62.8,14.1,118.9,1.1,166.5-42.2c41-37.2,60.3-84.4,59-139.7c-1.3,1.1-1.7,2.6-2,4.1c-10.7,48.3-37.1,84.8-80.9,108.5
		c-3,1.6-5.5,4.7-7.6,7.5c-22.2,29.3-50.8,49.2-87,56.5C262.6,507.1,246.4,507.5,230.4,509.2z M94.4,374c0.9,0.1,1.9,0.2,2.8,0.3
		c0-3.6,0.1-7.2,0-10.7c-1-52,19.8-93.3,60.8-124.9c3.5-2.7,6.4-6.6,8.6-10.5c11.2-19.9,25.8-36.7,44.1-50.3
		c19.6-14.5,41.7-23.3,67.5-28.3c-34.1-6.6-100,11.3-141,58.2C95.1,256.2,81.5,311.9,94.4,374z M388.5,359
		c-10.6,41.2-34.5,70.8-73.4,88.3c-4.9,2.2-9.7,5.6-13.2,9.6c-17.2,19.5-37.8,33-63.7,37.3c-10.1,1.7-20.4,1.8-30.7,2.7
		c44.7,12.9,86.2,6.1,123.4-21.6C369.7,446.3,388.8,407.1,388.5,359z M245,216.2c-56.3,1-99.3,25.6-126.6,75.1
		c-18.4,33.5-22.3,69.1-10.7,105.8c1.2-1.9,1.3-3.8,1.2-5.8c-1.4-37.4,13.3-67.3,41.9-91c2.8-2.4,4.8-6.2,6.3-9.7
		c11.5-27.2,29.8-48.4,56.2-61.8C223.4,223.8,234.4,220.4,245,216.2z M320,391.5c-0.9,2-1.8,4-2.5,6c-10.9,30-32.4,48-62.8,56.3
		c-4.4,1.2-9,3.8-12.1,7.1c-13,13.8-28.3,22.4-47.5,23.5c-2.6,0.1-5.2,0.8-7.7,1.3c36.8,12.2,69.9,5.2,98.7-19.4
		C308.7,447,320.7,422,320,391.5z M117.9,417.1c1-0.7,1.4-0.9,1.5-1.1c0.3-0.9,0.7-1.9,0.7-2.8c1-21.7,9.8-39.4,26.7-53.3
		c2.2-1.8,3.4-5.5,4.1-8.5c7.3-31,25.6-52.3,55.3-63.9c2.6-1,5.1-2.1,9.3-3.9C149.2,279.8,95,355.3,117.9,417.1z"/>
	<path class="st0" d="M289.6,75c-17.4,3.4-35.2,5.4-52.1,10.3C147.1,111.4,84.1,188.2,75.1,282c-0.3,3.2-1.4,6.4-2.1,9.6
		c0-72.2,0-144.4,0-216.6C145.2,75,217.4,75,289.6,75z"/>
	<path class="st0" d="M73,315.4c2.7,14.9,4.7,29.9,8.3,44.6c20.9,86.5,94.3,153.9,182.1,167.8c8.8,1.4,17.5,2.8,26.2,4.2
		c-72,0-144.1,0-216.6,0C73,459.8,73,387.6,73,315.4z"/>
	<path d="M667.1,196.2c-10-6.2-19.9-12.7-30.2-18.5c-6.1-3.4-12.9-5.5-19.2-8.5c-3-1.4-5.6-3.6-8.4-5.5
		c9.1,35.2,18.2,70.9,27.4,106.6c-0.6,0.2-1.1,0.5-1.7,0.7c-7.7-19.3-15.4-38.6-23.2-58c-1.1,0.2-2.2,0.4-3.3,0.7
		c0,6.3,0,12.6,0,18.9c-0.8,0.6-1.6,1.2-2.4,1.8c-2.1-2.7-5.1-5-6.1-8.1c-1.4-4.3-2.8-9.5-1.7-13.5c3.5-12.4-5.9-19.4-10-28.7
		c-2.4-5.4-3.9-11.1-5.2-15.2c8.9-3.5,15-5.9,21-8.3c-0.4-1.2-0.8-2.5-1.2-3.7c-7.3,7.5-15.6,6.1-24,3.9c0,0-0.2-0.2-0.2-0.2
		c-6.7-4.3-8.7-10.2-8.9-18.3c-0.2-9.4-3.2-18.7-4.9-28c-0.3-1.8,0-3.7,0-5.6c11.8,0.5,23.3,0.6,26.6,17.1
		c6.1-9.2,11.9-7.6,17.3-2.7c6.5,6,13,12,18.6,18.8c13.5,16.5,26.5,33.5,39.7,50.4C667.1,193.5,667.1,194.9,667.1,196.2z"/>
	<path d="M578.8,160.6c0,0,0.2,0.2,0.2,0.2c3.2,9.5,4.8,18.4-1.4,27.9c-2.9,4.4-3.8,10.5-4.1,16c-0.6,12.2,0,24.5-0.4,36.7
		c-0.2,4.7-1.7,9.3-2.6,14c-1,0.2-1.9,0.3-2.9,0.5c-1.8-3.5-4.6-6.8-5.4-10.6c-4-18.9-8.3-37.8-11-57c-2.2-15.2-2.3-30.6-3.1-46
		c-0.3-5.9,0.5-12,8.3-11.9c7.4,0.1,11.5,4.4,10.8,12.3c-0.4,4.9-0.8,9.7-1.1,13.8C570.6,157.9,574.7,159.2,578.8,160.6z"/>
	<path d="M438.1,149.4c-4.7-13.2-8.4-15.7-22.2-12.7c-13.8,3-27.3,7.5-41.2,10.1c-7.4,1.4-15.2,0.2-22.8,0.2c-0.3-1-0.7-2-1-3
		c4.9-2.7,9.9-5.5,14.8-8.2c11.9-6.4,23.6-13.2,35.7-19c3.9-1.9,9-1.2,13.6-1.6c0,0-0.3-0.3-0.3-0.3c5.1,1.4,10.2,3.9,15.4,3.9
		c12.9,0.1,12.9-0.3,18.3,9.3c-3.7,7.6-7.1,14.4-10.5,21.2L438.1,149.4z"/>
	<path d="M489.6,176.7c-0.9,4.4-0.7,9.5-2.9,13.1c-7.7,12.4-16.3,24.3-24.5,36.4c-1.2-0.3-2.4-0.6-3.5-0.9c0.3-5.4-0.1-11,1.1-16.2
		c2.2-9.6,5.9-18.8,8-28.4c1.1-4.9,0.2-10.2,0.2-15.3c-1.1-0.4-2.2-0.7-3.2-1.1c6.2-4.3,12.5-8.6,18.8-13.1
		c2.5,10.4,4.3,18.2,6.1,25.9C489.7,177.1,489.6,176.7,489.6,176.7z"/>
	<path d="M415,115.1c0.6-2.3,0.6-6.1,1.9-6.6c13.3-5.8,26.6-11.7,40.4-16.2c10.9-3.6,18.2,2.6,19,14.2c0,0,0.3-0.3,0.3-0.3
		c-8.2,6.4-16.4,12.9-25.3,19.8c-1.5-3.1-3-6.2-4.2-8.8c-11-0.8-21.7-1.7-32.4-2.5C414.7,114.8,415,115.1,415,115.1z"/>
	<path d="M489.6,176.7c0,0,0.1,0.4,0.1,0.4c0-8.4,0-16.8,0-25.9c-2.1-0.5-4.5-1-7.4-1.7c4.6-7.3,9.1-14.3,13.9-21.8
		c-16-1.7-18.4-4.6-19.7-21.4c0,0-0.3,0.3-0.3,0.3c2.3,2.6,5,4.9,6.9,7.8c4.5,6.7,9.3,9.2,17.2,4.7c1.1-0.6,9.1,6.2,8.6,8.3
		c-4.1,16.4-9.4,32.5-14.7,48.7C494.1,176.7,491.2,176.5,489.6,176.7z"/>
	<path d="M409.5,187.9c-15.9,16.8-31.6,33.5-47.4,50.2C376.4,219.8,383.4,194.4,409.5,187.9z"/>
	<path d="M623.4,281.1c-6-14-12-27.9-18-41.9c1.2-0.5,2.4-1,3.7-1.5c6,13.9,11.9,27.9,17.9,41.8C625.8,280,624.6,280.5,623.4,281.1z
		"/>
	<path d="M401.7,228.8c-0.4-2.1-2-5-1.2-6.1c4.6-6.1,9.6-11.8,14.8-17.3c0.9-0.9,3.6-0.1,7.6-0.1c-7.9,8.6-14.7,16-21.5,23.4
		L401.7,228.8z"/>
	<path d="M481.4,107c-0.9-4.9-2.8-8.8-1.6-10.5c1.2-1.8,5.5-1.3,8.4-2.1c2.9-0.7,5.8-1.7,10-1.1C493.3,97.4,488.4,101.4,481.4,107z"
		/>
	<path d="M437.9,149.3c-7.6,8.2-15.1,16.5-22.7,24.6c-1.8,1.9-3.8,3.5-5.8,5.2c-0.6-0.6-1.3-1.3-1.9-1.9
		c10.1-9.3,20.3-18.6,30.5-27.9C438.1,149.4,437.9,149.3,437.9,149.3z"/>
	<path d="M401.5,228.6c-7.3,6.8-14.6,13.6-22,20.3c-0.6-0.6-1.2-1.3-1.8-1.9c5.8-6,11.5-12.1,17.6-17.8c1.2-1.1,4.2-0.4,6.4-0.4
		C401.7,228.8,401.5,228.6,401.5,228.6z"/>
	<path class="st0" d="M522.3,295.6c2,80.5-29.3,145.2-95.3,192.2c-57.9,41.2-136.2,46.9-180.9,30.1c18.5,0,34.4,1.5,49.9-0.3
		c56.1-6.3,99.8-34.1,132.4-79.8c3.4-4.7,7.6-9.1,12.3-12.5c42.1-29.8,69-69.5,79-120.4C520.3,301.8,521.4,298.7,522.3,295.6z"/>
	<path class="st0" d="M86.6,357.1c-18.6-76-3.2-144.4,48.9-202.7c45.8-51.3,104.1-75.4,171.4-74.1c-20.3,7.9-42.3,14.8-62.8,24.8
		c-25.7,12.5-45.6,32.5-62.5,55.5c-4.6,6.2-10.3,11.9-16.5,16.6c-58.5,44.4-85.3,102.7-78.2,176.1C87,354.5,86.7,355.8,86.6,357.1z"
		/>
	<path class="st0" d="M230.4,509.2c16-1.7,32.2-2.2,48-5.3c36.2-7.3,64.8-27.2,87-56.5c2.1-2.8,4.6-5.9,7.6-7.5
		c43.8-23.7,70.2-60.1,80.9-108.5c0.3-1.5,0.6-3,2-4.1c1.3,55.3-18,102.4-59,139.7C349.3,510.3,293.1,523.3,230.4,509.2z"/>
	<path class="st0" d="M94.4,374c-12.9-62.2,0.6-117.8,42.8-166.1c41-47,106.9-64.8,141-58.2c-25.7,5-47.9,13.7-67.5,28.3
		c-18.3,13.6-32.9,30.4-44.1,50.3c-2.2,3.9-5.1,7.8-8.6,10.5c-41,31.6-61.8,72.9-60.8,124.9c0.1,3.6,0,7.2,0,10.7
		C96.3,374.3,95.4,374.2,94.4,374z"/>
	<path class="st0" d="M388.5,359c0.3,48.1-18.8,87.3-57.6,116.2c-37.2,27.8-78.7,34.5-123.4,21.6c10.2-0.8,20.6-1,30.7-2.7
		c25.9-4.3,46.5-17.8,63.7-37.3c3.5-4,8.4-7.4,13.2-9.6C354,429.8,377.9,400.2,388.5,359z"/>
	<path class="st0" d="M245,216.2c-10.6,4.2-21.6,7.6-31.7,12.7c-26.4,13.4-44.7,34.6-56.2,61.8c-1.5,3.5-3.4,7.3-6.3,9.7
		c-28.6,23.7-43.3,53.6-41.9,91c0.1,1.9,0,3.9-1.2,5.8c-11.6-36.7-7.8-72.3,10.7-105.8C145.7,241.8,188.7,217.2,245,216.2z"/>
	<path class="st0" d="M320,391.5c0.7,30.5-11.3,55.5-34,74.9c-28.8,24.6-61.9,31.6-98.7,19.4c2.6-0.4,5.1-1.1,7.7-1.3
		c19.2-1.1,34.5-9.7,47.5-23.5c3.1-3.3,7.7-5.9,12.1-7.1c30.5-8.3,51.9-26.4,62.8-56.3C318.2,395.4,319.1,393.5,320,391.5z"/>
	<path class="st0" d="M117.9,417.1c-22.9-61.7,31.4-137.2,97.7-133.5c-4.3,1.8-6.8,2.9-9.3,3.9c-29.7,11.5-48,32.9-55.3,63.9
		c-0.7,3-1.9,6.7-4.1,8.5c-16.9,13.8-25.7,31.6-26.7,53.3c0,1-0.4,1.9-0.7,2.8C119.3,416.2,118.9,416.3,117.9,417.1z"/>
</g>
</svg>
