<svg id="Layer_1" data-name="Layer 1" xmlns="http://www.w3.org/2000/svg" viewBox="0 0 676.54 558.65"><defs><style>.cls-1{fill:#efefef;}.cls-2{fill:#f5f5f5;}.cls-3{fill:#f4f3f3;}.cls-4{fill:#f7f7f7;}.cls-5{fill:#f9f9f9;}.cls-6{fill:#f3f3f3;}.cls-7{fill:#f8f8f8;}.cls-8{fill:#e3e2e2;}.cls-9{fill:#e7e6e6;}.cls-10{fill:#fafafa;}.cls-11{fill:#fcfcfc;}.cls-12{fill:#fbfbfb;}.cls-13{fill:#f0efef;}.cls-14{fill:#f9f8f8;}.cls-15{fill:#f8f7f7;}.cls-16{fill:#989797;}.cls-17{fill:#fdfdfd;}.cls-18{fill:#8e8d8d;}.cls-19{fill:#8c8b8b;}.cls-20{fill:#919090;}.cls-21{fill:#8b8a8a;}.cls-22{fill:#8d8b8b;}.cls-23{fill:#908e8e;}.cls-24{fill:#9e9b9b;}.cls-25{fill:#9d9a9a;}.cls-26{fill:#868585;}.cls-27{fill:#858484;}.cls-28{fill:#a8a5a5;}.cls-29{fill:#807f7f;}.cls-30{fill:#7d7c7c;}.cls-31{fill:#8d8c8c;}.cls-32{fill:#a2a0a0;}.cls-33{fill:#848383;}.cls-34{fill:#afacac;}.cls-35{fill:#818080;}.cls-36{fill:#7e7e7e;}.cls-37{fill:#aeacac;}.cls-38{fill:#797979;}.cls-39{fill:#a6a3a3;}.cls-40{fill:#a9a6a6;}.cls-41{fill:#b0adad;}.cls-42{fill:#7b7b7b;}.cls-43{fill:#fdfcfc;}.cls-44{fill:#a9a7a7;}.cls-45{fill:#fefefe;}.cls-46{fill:#b9b6b6;}.cls-47{fill:#b7b5b5;}.cls-48{fill:#aca9a9;}.cls-49{fill:#b3b1b1;}.cls-50{fill:#b8b5b5;}.cls-51{fill:#b1aeae;}.cls-52{fill:#b4b1b1;}.cls-53{fill:#b2afaf;}.cls-54{fill:#b61209;}.cls-55{fill:#999;}.cls-56{fill:#649064;}.cls-57{fill:#8c6239;}.cls-58{fill:#754c24;}.cls-59{fill:#0071bc;}.cls-60{font-size:21px;fill:#f2f2f2;}.cls-60,.cls-64,.cls-65,.cls-66{font-family:Montserrat-Medium, Montserrat;}.cls-61{fill:#fff;}.cls-62{fill:none;stroke:#000;stroke-miterlimit:10;}.cls-63{fill:#757575;}.cls-64{font-size:9px;}.cls-64,.cls-65,.cls-66{fill:#4d4d4d;}.cls-64,.cls-65,.cls-67{letter-spacing:0em;}.cls-65,.cls-66{font-size:7px;}.cls-66{letter-spacing:-0.01em;}.cls-68{letter-spacing:-0.01em;}.cls-69{letter-spacing:-0.02em;}.cls-70{letter-spacing:-0.04em;}</style></defs><title>kort2</title><path class="cls-1" d="M604.34,199.14l-9.92-3.08c-1.65-1.34-1.2-2.33.5-3.13,3.9.78,8.11.51,11.45,3.28C607,198.08,606.88,199.46,604.34,199.14Z" transform="translate(-16.67 -20.24)"/><path class="cls-2" d="M629.51,79.71C633,80.89,637,80.94,640,83.54c.72,1,.35,1.72-.43,2.42-4.16.41-7.69-1.31-11.14-3.3C627.82,81.32,626.45,79.67,629.51,79.71Z" transform="translate(-16.67 -20.24)"/><path class="cls-3" d="M566,172c-2.37-2.5-3.17-6-5.2-8.68.7-1.81,2-1.75,3.53-1.19a16.56,16.56,0,0,1,4.78,9.4C568.36,173.28,567.38,173.79,566,172Z" transform="translate(-16.67 -20.24)"/><path class="cls-4" d="M649.52,191l-8.25,4.6c-1.19.31-2.3.42-2.68-1.15,1.86-4.6,6.17-5.25,10.22-6.36C650.2,188.73,651.11,189.53,649.52,191Z" transform="translate(-16.67 -20.24)"/><path class="cls-5" d="M562.19,113.51l5.28-8.88c1.28-.35,1.84.43,2.27,1.43-.81,4.17-1.62,8.34-6.2,10.22C561.8,116,561.75,114.87,562.19,113.51Z" transform="translate(-16.67 -20.24)"/><path class="cls-6" d="M668.41,106.73l5.18,8.86a2.58,2.58,0,0,1-3.64.86,16.2,16.2,0,0,1-4.63-9.2C666.08,105.49,667.07,105.06,668.41,106.73Z" transform="translate(-16.67 -20.24)"/><path class="cls-2" d="M642.2,84.14a34.9,34.9,0,0,1,9.42,5.13c.47,1.15-.22,1.75-1.08,2.27-4,.14-6.91-1.82-9.41-4.67C640.84,85.71,640.63,84.57,642.2,84.14Z" transform="translate(-16.67 -20.24)"/><path class="cls-3" d="M637.69,197.14a35.33,35.33,0,0,1-11.66,2,1.45,1.45,0,0,1-.39-1c2.4-3.92,6.43-3.55,10.21-3.88C637.43,194.61,638.75,195.11,637.69,197.14Z" transform="translate(-16.67 -20.24)"/><path class="cls-6" d="M585,87.82l8.24-4.45c2.46-.54,2,1,1.68,2.38-2.25,2.9-4.91,5.07-8.87,4.88C585,90,584.1,89.22,585,87.82Z" transform="translate(-16.67 -20.24)"/><path class="cls-7" d="M590.27,194a26.76,26.76,0,0,1-7.52-4.46c-1.65-1.3-1.3-2.29.46-3.08,4.08.57,7.1,2.82,9.51,6C592.47,193.87,591.81,194.63,590.27,194Z" transform="translate(-16.67 -20.24)"/><path class="cls-8" d="M575.89,95.14c2.56-2,4.23-4.85,7-6.57a2.43,2.43,0,0,1,1.72,2.76,9.25,9.25,0,0,1-6.49,6,2.59,2.59,0,0,1-1.55-.69A2.06,2.06,0,0,1,575.89,95.14Z" transform="translate(-16.67 -20.24)"/><path class="cls-9" d="M660.42,97c2.15,1.44,3.48,3.64,5.14,5.53,1.2,1.62,1.19,2.79-1.16,3.06a9.46,9.46,0,0,1-6.32-6.75,2.42,2.42,0,0,1,.35-1A2.2,2.2,0,0,1,660.42,97Z" transform="translate(-16.67 -20.24)"/><path class="cls-10" d="M671.41,166.77a42.13,42.13,0,0,1-5.06,8.1c-1.22.82-1.84.13-2.33-.91a13.75,13.75,0,0,1,5.92-9.68C671.36,164.57,672.12,165.24,671.41,166.77Z" transform="translate(-16.67 -20.24)"/><path class="cls-11" d="M674.27,118.42c.88,3.44,3.06,6.61,2.12,10.42a1.32,1.32,0,0,1-1,.35c-1.94-1.06-2.5-3.06-3.3-4.89-.41-1.76-1.55-3.42-.81-5.36C672.07,117.7,673,116.84,674.27,118.42Z" transform="translate(-16.67 -20.24)"/><path class="cls-10" d="M596.68,82c2.69-.74,5.24-2,8.08-2.15.87-.64,1.86-.76,2.38.23.7,1.31-.41,2.12-1.26,2.92-2.93,1-5.6,3.29-9,1.71A1.86,1.86,0,0,1,596.68,82Z" transform="translate(-16.67 -20.24)"/><path class="cls-10" d="M557.2,129.93a15,15,0,0,0,1.47-6.21,47.85,47.85,0,0,1,2.22-6.67l0,.06c1.88-1,2.21.55,2.81,1.68.46,2-.42,3.77-.91,5.6-1.47,2.19-1.23,5.67-4.75,6.32A1,1,0,0,1,557.2,129.93Z" transform="translate(-16.67 -20.24)"/><path class="cls-12" d="M676.55,152l-.75,3a50.46,50.46,0,0,1-2.23,6.69l-.78,1.45c-1.21.33-1.84-.36-2.32-1.33-.48-1.84.42-3.45.85-5.14,1.17-2.06,1.22-4.93,4.12-5.76C676.05,151.07,676.54,151.29,676.55,152Z" transform="translate(-16.67 -20.24)"/><path class="cls-11" d="M560.19,160.37q-1.12-5.13-2.24-10.27a1.3,1.3,0,0,1,1-.49c2,1,2.78,3,3.65,4.85.56,1.68,1.71,3.26.82,5.16C562.59,161,561.72,162.08,560.19,160.37Z" transform="translate(-16.67 -20.24)"/><path class="cls-5" d="M574.11,182.23l-5.21-5.88c-.75-2.29.72-2.16,2.2-2,3.07,1.08,4.58,3.57,5.72,6.39a2.09,2.09,0,0,1-.29,1.06A1.75,1.75,0,0,1,574.11,182.23Z" transform="translate(-16.67 -20.24)"/><path class="cls-13" d="M675,142h2.28c.67,2.18,1.18,4.35,0,6.51-.88,1.42-1.85,1.19-2.86.16C673.18,146.34,674.49,144.22,675,142Z" transform="translate(-16.67 -20.24)"/><path class="cls-14" d="M575.89,95.14l1,.43c.71,3.1-2.35,4.56-3.06,7.06-.93,1.08-2,2-3.55,1.62-1-.61-1.37-1.37-.68-2.45A47.53,47.53,0,0,1,575.89,95.14Z" transform="translate(-16.67 -20.24)"/><path class="cls-6" d="M658.19,184.53l-5.68,5c-2.56-1.11-1.3-2.86-.75-4.49,1.68-1.64,3-3.9,6-3.09C658.66,182.7,659,183.52,658.19,184.53Z" transform="translate(-16.67 -20.24)"/><path class="cls-15" d="M660.42,97l-1.16,1c-2.33,0-3.87-1.65-5.7-2.73a3.46,3.46,0,0,1-1.16-2.66c.31-1.09.78-1.91,2.11-1.17A33,33,0,0,1,660.42,97Z" transform="translate(-16.67 -20.24)"/><path class="cls-5" d="M664.81,177.27l-5.12,6.26c-1.36.64-1.12-.93-1.76-1.27-.16-2.65,2-4.07,3.19-6a3,3,0,0,1,1.61-.68A1.88,1.88,0,0,1,664.81,177.27Z" transform="translate(-16.67 -20.24)"/><path class="cls-5" d="M626,198.15l0,1c-1.9,1.8-4.31,1.19-6.55,1.38a2.78,2.78,0,0,1,.61-2.22C622,196.72,624,195,626,198.15Z" transform="translate(-16.67 -20.24)"/><path class="cls-5" d="M579.91,186.6a6.06,6.06,0,0,1-4.38-2.85c-.85-1-.28-1.6.57-2.14l.17-.16c3.09-.66,4.28,1.25,5.07,3.72C581.19,186,581,186.77,579.91,186.6Z" transform="translate(-16.67 -20.24)"/><path class="cls-16" d="M571.09,175.61c-1-.66-2-1.21-2.19.74-1.91-.83-2.43-2.57-2.86-4.37.94.45,2.14,1.74,2.18-.67C571.5,171.79,571.93,172.44,571.09,175.61Z" transform="translate(-16.67 -20.24)"/><path class="cls-17" d="M557.21,142.66a.87.87,0,0,1,1.47.11c2,1,2.53,2.55,1.42,4.56-.9.85-1.83,1.44-2.93.29Z" transform="translate(-16.67 -20.24)"/><path class="cls-18" d="M629.51,79.71c-.57,0-1.2,0-1.26.76-.09.92.9.83,1.33,1.28-1.8,2.25-3.55,2-5.25-.12a2,2,0,0,1-.12-1.19,2.54,2.54,0,0,1,1.8-1.38C627.2,79.13,628.5,78.64,629.51,79.71Z" transform="translate(-16.67 -20.24)"/><path class="cls-19" d="M653,186c-1.59,1-1.22,2.25-.52,3.57l-3,1.39c.5-1,.65-1.84-.72-2.2C649.27,185.48,650,185,653,186Z" transform="translate(-16.67 -20.24)"/><path class="cls-20" d="M596.68,82c0,.81-.13,1.65.65,2.22-.37,2.48-1.73,2.44-3.49,1.36.6-1,.77-1.77-.6-2.18A3.57,3.57,0,0,1,596.68,82Z" transform="translate(-16.67 -20.24)"/><path class="cls-21" d="M654.51,91.45c-1.14-.18-1.5.44-1.48,1.45-2.16.88-3,.06-2.83-2.16.9-.08,1.24-.7,1.42-1.47A2.94,2.94,0,0,1,654.51,91.45Z" transform="translate(-16.67 -20.24)"/><path class="cls-22" d="M663.8,104.55c1.55.2,2.46-.18,1.76-2a7.49,7.49,0,0,1,2.85,4.16c-1-.45-1.89-.79-2.18.74C664,107.7,663.45,106.49,663.8,104.55Z" transform="translate(-16.67 -20.24)"/><path class="cls-23" d="M590.27,194c1.17.16,1.71-.52,2-1.52,1.63-.85,2.75-.69,2.89,1.44-1.51.29-1.23,1.2-.75,2.18A7.82,7.82,0,0,1,590.27,194Z" transform="translate(-16.67 -20.24)"/><path class="cls-18" d="M674.27,118.42c-1-.45-1.9-.6-2.23.8-2.36-.44-2.62-1.67-1.31-3.49l2.86-.14Z" transform="translate(-16.67 -20.24)"/><path class="cls-22" d="M671.34,161.82a1.76,1.76,0,0,0,1.45,1.38,3.87,3.87,0,0,1-1.38,3.57,1.73,1.73,0,0,0-1.5-2.09C669.06,163.06,669.23,162,671.34,161.82Z" transform="translate(-16.67 -20.24)"/><path class="cls-24" d="M576.1,181.61l-.57,2.14c-2.48-.13-3,2.43-5,3.52.35-2.48,2.68-3.29,3.63-5Z" transform="translate(-16.67 -20.24)"/><path class="cls-25" d="M658.36,182.12l1.33,1.41,3.95,4.39c-2.37-.14-2.88-3.49-5.45-3.39-.26-.78-.51-1.56-.77-2.34l.28-.3A.48.48,0,0,1,658.36,182.12Z" transform="translate(-16.67 -20.24)"/><path class="cls-26" d="M579.91,186.6c.73-.21.69-.86.8-1.42,1.91-.58,3.07-.19,2.76,2.11-1.52.32-1.23,1.23-.72,2.21C581.39,188.94,579.67,188.73,579.91,186.6Z" transform="translate(-16.67 -20.24)"/><path class="cls-27" d="M637.69,197.14c-.17-1.8-1.38-2-2.81-1.78.64-2.85,2.2-2.91,4.28-1.43.16,1.25,1.05,1.55,2.11,1.63Z" transform="translate(-16.67 -20.24)"/><path class="cls-27" d="M562.38,119.15a1.62,1.62,0,0,0-1.54-2,5.84,5.84,0,0,1,1.35-3.6c.07,1.06.38,1.94,1.63,2.07C564.91,117.4,564.9,118.78,562.38,119.15Z" transform="translate(-16.67 -20.24)"/><path class="cls-28" d="M557.2,129.93a1.06,1.06,0,0,1,.68.07c.54.53,1.31.9,1.28,1.83-1,2-.23,4.6-1.89,6.45l-.66.71C556.63,136,555.84,132.87,557.2,129.93Z" transform="translate(-16.67 -20.24)"/><path class="cls-29" d="M569.63,101.8c-.31,1,.48,1.44.88,2.09.57,1.6,0,2.36-1.69,2.28,0-.91-.74-1.17-1.35-1.54A3.05,3.05,0,0,1,569.63,101.8Z" transform="translate(-16.67 -20.24)"/><path class="cls-30" d="M604.34,199.14c2,.07,1.36-1.23,1.18-2.29a2.07,2.07,0,0,1,2.79-.54,1.78,1.78,0,0,1,.81,1.58,2.28,2.28,0,0,1-1.44,1.81C606.54,199.7,605.35,199.92,604.34,199.14Z" transform="translate(-16.67 -20.24)"/><path class="cls-31" d="M560.19,160.37c.82,0,1.75.36,2.18-.74,2.45.42,2.51,1.72,1.31,3.49-1-1.2-1.88.34-2.84.18C560.63,162.33,559.86,161.47,560.19,160.37Z" transform="translate(-16.67 -20.24)"/><path class="cls-32" d="M604.87,81.92c.24-1,2.19-.29,1.79-1.67-.2-.71-1.21-.46-1.9-.43,1-1.32,2.43-.73,3.72-.66a2.21,2.21,0,0,1,.75,1,1.85,1.85,0,0,1-.05,1.29C607.91,83.29,606.49,83.59,604.87,81.92Z" transform="translate(-16.67 -20.24)"/><path class="cls-33" d="M675,148.32a2.32,2.32,0,0,0,2.24.22c-.16,1.18.35,2.49-.71,3.48l-.74-.68c-.72-.14-1.59,0-2-.87C673.59,149.4,673.68,148.51,675,148.32Z" transform="translate(-16.67 -20.24)"/><path class="cls-26" d="M664.81,177.27l-2.17-1c-.63-1.91-.14-3,2.07-2.81a1.62,1.62,0,0,0,1.64,1.39A2.35,2.35,0,0,1,664.81,177.27Z" transform="translate(-16.67 -20.24)"/><path class="cls-34" d="M607.68,199.7l.63-1.45c2.49.44,5.18-.06,7.44,1.52q0,.34,0,.69C613,200.48,610.27,201,607.68,199.7Z" transform="translate(-16.67 -20.24)"/><path class="cls-35" d="M583.61,91.33l-.72-2.76c.68-.32,1.25-.94,2.11-.75,0,1.06,1.17,1.3,1.43,2.16C586,91.56,585.16,92.18,583.61,91.33Z" transform="translate(-16.67 -20.24)"/><path class="cls-36" d="M642.2,84.14c-.94,1.11-.29,2,.41,2.86-1.6.67-2.77.28-3.42-1.39l.77-2.07C640.77,83.48,641.65,83.21,642.2,84.14Z" transform="translate(-16.67 -20.24)"/><path class="cls-37" d="M626,79.06a1.53,1.53,0,0,1-.8,1.38c-1.78-1-4.15.52-5.73-1.33l-.73-.69C621.19,78.44,623.7,77.55,626,79.06Z" transform="translate(-16.67 -20.24)"/><path class="cls-38" d="M557.17,147.62l2.24-.53a1.48,1.48,0,0,1,1.12,2c-.42.82-1.22.57-1.89.65l-.69.31C557,149.48,557.23,148.51,557.17,147.62Z" transform="translate(-16.67 -20.24)"/><path class="cls-39" d="M677.84,139l-.64-.7c-1.6-2.18-1.27-4.5-.5-6.86l.51-.42C678.75,133.55,677.72,136.31,677.84,139Z" transform="translate(-16.67 -20.24)"/><path class="cls-40" d="M608.79,80.12l-.31-1c2.27-1.69,4.86-.57,7.28-.85a3.47,3.47,0,0,1,0,.72C613.66,80.81,611.13,79.88,608.79,80.12Z" transform="translate(-16.67 -20.24)"/><path class="cls-41" d="M673.57,161.75a17.48,17.48,0,0,1,2.23-6.69A10,10,0,0,1,673.57,161.75Z" transform="translate(-16.67 -20.24)"/><path class="cls-34" d="M560.89,117.05a17.54,17.54,0,0,1-2.22,6.67A10,10,0,0,1,560.89,117.05Z" transform="translate(-16.67 -20.24)"/><path class="cls-42" d="M675.83,129a1.1,1.1,0,0,1,.56-.16c.31.7,1.11,1.22.82,2.16l0-.07c-.5.52-.93,1.15-1.76,1.2a1.78,1.78,0,0,1-1.59-2.41C674.31,128.85,675.13,129.09,675.83,129Z" transform="translate(-16.67 -20.24)"/><path class="cls-43" d="M608.33,196.89c1.89,1,3.83,1.68,5.95.69l1.47,2.19c-2.45-.64-5.44,1.33-7.44-1.52Z" transform="translate(-16.67 -20.24)"/><path class="cls-44" d="M560.79,123.72c0,4.9-1.95,9.62-1.38,14.58h-.68a6.76,6.76,0,0,1-.05-6.57l-.8-1.73C560.5,128.67,559.34,125.59,560.79,123.72Z" transform="translate(-16.67 -20.24)"/><path class="cls-10" d="M615.09,80.48l-5.51.23-.79-.59c2.05-2.12,4.66-.66,7-1.09C615.54,79.51,615.32,80,615.09,80.48Z" transform="translate(-16.67 -20.24)"/><path class="cls-45" d="M675.78,138.23v-6.49l1.47-.81q0,3.67,0,7.35Z" transform="translate(-16.67 -20.24)"/><path class="cls-17" d="M624.62,80.51c-1.6.93-3.52-.45-5.1.68,0-.7,0-1.39,0-2.08,1.89.51,4.34-1.36,5.73,1.33Z" transform="translate(-16.67 -20.24)"/><path class="cls-45" d="M558.68,131.73q0,3.28.05,6.57l-1.46,0C557.88,136.13,555.8,133.39,558.68,131.73Z" transform="translate(-16.67 -20.24)"/><path class="cls-46" d="M577.81,96.63c-1.84,1.65-3.12,3.88-5.35,5.13.6-2.71,3.52-3.73,4.46-6.19Z" transform="translate(-16.67 -20.24)"/><path class="cls-47" d="M659,98.93c-1.42-1.61-3.43-2.64-4.44-4.65,2.19.48,3.28,2.34,4.75,3.72C659.16,98.31,659.05,98.62,659,98.93Z" transform="translate(-16.67 -20.24)"/><path class="cls-48" d="M674.39,129.56c0-2-1.25-3.8-.79-5.84,1.31,1.52.61,3.89,2.23,5.28Z" transform="translate(-16.67 -20.24)"/><path class="cls-49" d="M672.82,157.43a17.87,17.87,0,0,1,1.54-6.71l1.45.62C673.34,152.64,674.74,155.85,672.82,157.43Z" transform="translate(-16.67 -20.24)"/><path class="cls-40" d="M560.06,149.24c0,2,1.25,3.79.8,5.83-1.29-1.53-.6-3.89-2.22-5.28Z" transform="translate(-16.67 -20.24)"/><path class="cls-50" d="M657.55,182.25A9.86,9.86,0,0,1,662,177c-.41,2.28-2.7,3.19-3.64,5.08Z" transform="translate(-16.67 -20.24)"/><path class="cls-51" d="M574.07,122.13c-.34,2.42-.8,4.79-2.48,6.72C572.14,126.5,572.37,124.05,574.07,122.13Z" transform="translate(-16.67 -20.24)"/><path class="cls-49" d="M599.67,96.59a21.68,21.68,0,0,1-5.9,3.12C595.1,97.46,597.3,96.87,599.67,96.59Z" transform="translate(-16.67 -20.24)"/><path class="cls-51" d="M661.87,125.23c-1.63-1.84-2.35-4.12-3.1-6.39A9.8,9.8,0,0,1,661.87,125.23Z" transform="translate(-16.67 -20.24)"/><path class="cls-52" d="M640.69,99.71a21.3,21.3,0,0,1-5.9-3.13C637.15,96.87,639.37,97.45,640.69,99.71Z" transform="translate(-16.67 -20.24)"/><path class="cls-52" d="M593.68,180.72c6.06,1.57,3,.49,6,3A8.16,8.16,0,0,1,593.68,180.72Z" transform="translate(-16.67 -20.24)"/><path class="cls-53" d="M571.59,151.42c1.68,1.9,2.08,4.29,2.53,6.67C572.29,156.24,572.17,153.74,571.59,151.42Z" transform="translate(-16.67 -20.24)"/><path class="cls-51" d="M660.39,158.12a16.85,16.85,0,0,1,2.24-6.75A10.39,10.39,0,0,1,660.39,158.12Z" transform="translate(-16.67 -20.24)"/><path class="cls-52" d="M634.78,183.68a15.21,15.21,0,0,1,6-3A8.09,8.09,0,0,1,634.78,183.68Z" transform="translate(-16.67 -20.24)"/><polygon class="cls-54" points="590.21 97.31 600.07 53.76 610.39 97.36 633.35 83.59 619.4 108.3 664.33 119.17 619.58 129.49 632.82 152.88 610.39 139.82 600.07 183.43 589.74 139.82 567.6 152.93 580.34 130.73 534.66 119.17 579.19 109.15 567.94 85.89 590.21 97.31"/><path class="cls-55" d="M278,321.32c-9.21-.68-18.45-1-27.66-1.64-1.33-.09-3.16.45-4.32-.27-5.07-.08-10.08-.92-15.14-1a1.08,1.08,0,0,1-.46-.12c-9.64-.46-19.28-.86-28.92-1.45-14.15-.88-28.29-1.94-42.43-2.9a7.48,7.48,0,0,1-2.15-.3,1,1,0,0,1-.8,0l-.4-.2c-2.81-.05-5.63.39-8.39-.08-3.63.17-7.38-.81-10.94-.86-9.55-.16-13.29-.94-14.48-5.7a1,1,0,0,1-.14-.46,2,2,0,0,0,0-.23c-.05-.28-.1-.56-.14-.86a1.06,1.06,0,0,1-.17-1.13,11.34,11.34,0,0,1-.4-4,34.06,34.06,0,0,1-.81-5.78c-.38-5.17-1-10.53-.71-15.71a49.46,49.46,0,0,1-1.22-8.5s0,0,0-.05,0-.13,0-.2q-.07-.9-.18-1.8c-.35-2.13-1.09-4.23-1.63-6.29a9.89,9.89,0,0,1-.47-3.51.41.41,0,0,1,0-.11c0-.07,0-.13,0-.2a14.54,14.54,0,0,1-.31-3.79,5.9,5.9,0,0,1,.07-2.41c-.29-2.44-.31-4.9-.44-7.35a2.51,2.51,0,0,1,0-.27c-.38-1.83-1-3.62-.66-5.44a1.22,1.22,0,0,1,0-.57,1.14,1.14,0,0,1-.05-.85,1,1,0,0,1,0-.17c-1-16.66-1.9-33.32-3.08-50-1.24-17.38-2.08-34.79-3.19-52.17q-2-31.59-3.3-63.19c-.19-4.53,1.1-6.79,5.9-7q11.64-.54,23.24-1.71c16.64-1.7,33.26-3.42,50-4.44,17.43-1,34.82-2.53,52.31-2a5.82,5.82,0,0,1,2.09.37c1.29.06,2.56-.13,3.85-.18.3,0,1.26.06,2.15,0l.57,0a2.27,2.27,0,0,0,1.05-.27,6,6,0,0,1-.18-4.68c1-3,.41-3.86-2.83-3.7-17.27.88-34.56,1.22-51.8,2.41-27.18,1.87-54.31,4.24-81.46,6.49-4.27.35-6.12-.9-6.18-5.53-.12-8.75-.83-17.49-1.34-26.24-.09-1.62.55-4.23-1.36-4.47-4.07-.49-8.57-1.08-12.24.22-2.77,1-1.18,5.28-1,8.06,1.21,23.32,2.4,46.64,4,69.94.41,6.16-1.59,8-7.68,7.81-19.94-.77-39.9-1.08-59.85-1.55-3.86-.1-7.47-.86-7.48,5.54,0,6.08,2.57,6.51,7.43,6.55,21.14.18,42.28.76,63.42,1,4.09,0,5.38,1.77,5.59,5.73,2.14,40.31,4.67,80.59,8.34,120.82,3.44,37.77,6.27,75.62,11.33,113.2q7.88,58.5,18.88,116.58,9.26,48.74,18.41,97.48c.43,2.24,0,4.82,3.4,5.67,10.32,2.64,13.1.22,11.06-10-.62-3.1-1.06-6.24-1.73-9.33-9.47-43.69-16.61-87.83-25.06-131.71a1005.51,1005.51,0,0,1-13.82-100.24c-.79-8.84-.44-9.14,8.63-8.54,15.75,1.05,31.52,1.7,47.27,2.69,19.64,1.25,39.27,2.76,58.92,4,13.12.83,26.25,1.33,39.37,2.11,2.95.18,5.12-.73,5-3.68C283,319.51,279.8,321.45,278,321.32Z" transform="translate(-16.67 -20.24)"/><path class="cls-56" d="M454.53,252.74c12.06-10.05,15.06-22.91,12.92-38-4-28-19.39-48.2-41.79-64-1.78-1.26-3.3-2.89-5.1-4.13-5-3.45-7.1-7.47-4.33-13.61,1.93-4.28,1.41-9.07.62-13.68-3.5-20.27,3.32-30.66,23-36.15,11-3.07,22.3-4.39,33.39-6.84,7.66-1.7,8.84-.43,9.29,7.51,3.16,55.61,6.16,111.23,9.66,166.82.68,10.83,1,21.74,3.29,32.56.92,4.35-.5,9.92-.85,14.94a2.29,2.29,0,0,1-2.15,2.4,5.39,5.39,0,0,1-5.77-2.23c-2.45-3.58-4.83-7.22-7-11-5.6-9.81-13.2-17.16-24.14-20.78-5.83-1.92-7.7-5.63-4.17-11.17C452.41,254.47,453.47,253.6,454.53,252.74Z" transform="translate(-16.67 -20.24)"/><path class="cls-56" d="M376.22,69.81c-.51-3.45-1.31-6.9-5.54-7.57a57.12,57.12,0,0,0-6.55-.3c-22.06.48-44.12,1.13-66.15-.4-16.16-1-32.32-2.28-48.52-1-2.24.87-4.2-.09-6.2-.81a23.8,23.8,0,0,0-4-.59h0c-20.42,1-40.84,2-61.26,2.89-9.32.4-12.37,4.56-10.14,13.75,2.57,10.61,5.71,21.19,6.93,32,1.31,11.62,7,18.19,17.86,21,4.35,1.11,6.84,3.72,6.66,8.27a62.84,62.84,0,0,1-1.14,7.93c-.93,5.46.84,8.21,6.87,8.2,10.8,0,21.25-2.23,31.79-4,8.09-1.37,16.24-3.63,24.4-.09,2.77,1.2,5.51.79,7-2,1.77-3.32,2.48-7.39.26-10.41-6.19-8.46-6.48-8.35.77-16.65,2.59-3,2.86-6.54-.17-8.12-7.73-4.06-14.56-12-25-7.46a5.27,5.27,0,0,1-3.58.34c-5.26-2-6.86,1.44-8.39,5.28-1.88,4.74-3.79,9.48-5.85,14.15-.74,1.66-1.27,4.18-3.73,3.78-2.24-.36-1.45-2.75-1.7-4.28-1.39-8.38-3-16.74-3.89-25.18-.93-8.9-3.55-17.52-3.82-26.57-.11-3.69.58-5.16,3.83-5.1,6.09.1,12.07-1.58,18-1.63,25.06-.2,50.12.28,75.18.5,1.55,0,3.24.23,3.39,2s-1.58,2.33-3,2.47c-5.32.52-10.65,1-16,1.36-2.93.22-7.74.42-7.89,2.47-.52,7.31-6.18,10.24-11,14.2,4,2.41,7.74,2.09,11.35,2.11,9.73.07,19.46-.28,29.17,0,6.54.23,12.85-.57,18-4.44,9.36-7,20.12-7.88,31.09-8.5a30.64,30.64,0,0,0,6.44-1.08C374.89,75.41,376.73,73.3,376.22,69.81Z" transform="translate(-16.67 -20.24)"/><path class="cls-56" d="M435.21,61.72c11.92,0,23.85-.06,35.77.05,2.24,0,5.57-1.08,6.34,1.93.72,2.82-1.91,4.65-4.08,6.33-4.17,3.24-9.3,2.75-14,3.38-12.12,1.63-23.58,4.65-34.5,10.5-10.74,5.76-17.47,16.45-16,28.45a47.62,47.62,0,0,0,2,9.24c1.61,4.74,2.1,9.3-2.25,12.64a14.93,14.93,0,0,1-15.71,1.67c-18.85-8.73-36.15-4.34-46.72,12.48a15.11,15.11,0,0,0-1.31,4.13c-2.21,8.5-3.86,9.61-12.58,7.69-2.57-.56-4.92-2.07-7.48-2.75-5.58-1.46-6.15-5.28-4-9.48,7.36-14.53,4.29-29.9,3.76-45-.25-7.27,1.4-11.56,11.63-13.77,14.2-3.08,28.71-8.39,43.19.14,4.94,2.91,9.94,1.34,13.62-3.31,4.5-5.69,5.89-12.4,1.85-18.23s-1.4-5.7,3.19-5.69c12.41,0,24.82,0,37.23,0Z" transform="translate(-16.67 -20.24)"/><path class="cls-55" d="M511.06,305c-2-8.49-5.26-16.69-5.72-25.57-2.2-43-4.57-86-6.78-129-2.11-41.28-4.08-82.58-6.21-123.86-.12-2.28,1.58-6-2.9-6.11-5.08-.09-3.28,4-3.18,6.45q1.35,33.45,3.07,66.88c1.29,24.76,2.87,49.49,4.14,74.25,1.67,32.54,2.92,65.1,4.89,97.62.54,8.92.17,18,2.51,26.79,2.06,7.74,4.23,15.48,5.71,23.34,2,10.49-2,15.87-11,15.75-7.68,1.18-15.34.37-23.12.56a.87.87,0,0,1-.7-.3c-.6-.08-1.21-.06-1.81-.16a.4.4,0,0,1-.2-.08l-3-.12c-31.46-1.33-62.95-2.5-94.35-4.72-6.7-.47-13.44.58-19.89-.59-19.35-3.48-39-1.82-58.4-4.47-2.12-.29-3.83.17-3.84,3,0,2.64,1.4,3.43,3.66,3.33,4.16-.17,8.17,1,12.36,1.12,21.39.7,42.59,4,64.12,3.6,15-.3,30.06,1.72,45.1,2.44q35,1.66,70,2.93c6.52.24,13.69,1.9,19.35-1.77,7.3-4.72,7.82-.21,9.14,4.93,3.42,13.38.37,26.72-.55,39.95-2.75,39.52-6.28,79-9.71,118.45-2.23,25.68-3.66,51.64-20,73.56-.85,1.14-3,2.78-.86,4.24,1.78,1.2,3.77.33,4.89-1.7,6-10.83,13.26-21.08,15.34-33.68,4.07-24.74,6.13-49.71,8.2-74.66,1.82-22.05,2.3-44.25,5.27-66.13C521.05,368.68,518.63,336.77,511.06,305Z" transform="translate(-16.67 -20.24)"/><path class="cls-55" d="M469,336.33a32.26,32.26,0,0,1,.19-5.12c-3.54,0-7.1-.17-10.69-.08a.87.87,0,0,1-.7-.3c-.6-.08-1.21-.06-1.81-.16a.4.4,0,0,1-.2-.08l-3-.12c-31.46-1.33-62.95-2.5-94.35-4.72-6.7-.47-13.44.58-19.89-.59-19.35-3.48-39-1.82-58.4-4.47-2.12-.29-3.83.17-3.84,3,0,2.64,1.4,3.43,3.66,3.33,4.16-.17,8.17,1,12.36,1.12,21.39.7,42.59,4,64.12,3.6,15-.3,30.06,1.72,45.1,2.44q33.75,1.6,67.52,2.83C469,336.78,469,336.56,469,336.33Z" transform="translate(-16.67 -20.24)"/><path class="cls-56" d="M236,431.05c9.23-.46,18.47-.69,27.67-1.47,5.37-.46,7.38,1.89,8.1,6.78,3.43,23.3,7.47,46.52,10.27,69.9.87,7.24,3.9,9.08,10,9.28,12.47.39,24.66-2.35,37-3.23,29.57-2.1,59.16-4.43,88.57-8.13,21.47-2.69,43.09-1.95,64.52-4.57a44.22,44.22,0,0,1,7.27.13c2.38.12,5.43-.3,5.76,3,.3,3-2.09,5.18-4.54,6A47.09,47.09,0,0,1,480,510.68c-58.15,5.58-116.41,9.72-174.69,13.64-5.82.39-11.62,1-17.44,1.42-9.89.71-15.55-3.4-17.05-13.42-3-20.19-5.62-40.45-8.36-60.69-1.56-11.48-1.52-11.33-13-10.49q-38.2,2.81-76.43,5.24c-3.17.19-8,2.16-8.56-3.74-.48-5.18,2.5-7.42,7.47-7.75,21.35-1.42,42.69-2.94,64-4.42Z" transform="translate(-16.67 -20.24)"/><path class="cls-56" d="M351.23,309.48c-17.44-1.23-34.85-3.17-52.37-2.81-4.94.09-6.43-2.18-5.82-6.76,1.11-8.28,5.15-16.12,3.69-24.82-.29-1.7.57-3.56,2.83-3.4s5-2.11,6.48,1c.76,1.56.85,3.09,3.26,2.94,13.87-.88,22.34-13.89,17.48-27-5.1-13.78-5.1-13.78,9.52-16.69,8.8-1.75,9.34-1.4,9.46,7.94.11,7.86,2.43,14.37,8.42,20,10.87,10.17,21.59,20.36,35.62,26.2,2.21.93,5.65,1.36,4.43,5.35-.59,2.48-.86,5,.32,7.38,2.18,4.08,2.07,8.23.41,12.43-3.87,2.07-8,1.33-12.09,1C372.31,311.46,361.77,310.42,351.23,309.48Z" transform="translate(-16.67 -20.24)"/><path class="cls-57" d="M176.17,302.1a43.81,43.81,0,0,1-14-.77c-1.57.08-3.14.15-4.71.3s-2.9.17-4.35.25c-.14.07-.28.16-.41.24a.88.88,0,0,1,0,.17c.83,1.58,1.21,4,1.74,7.93l.53.38c6,0,11.7.58,17.69,1.15a1,1,0,0,1,.47.17,14.16,14.16,0,0,0,4.12-.33,5.76,5.76,0,0,0,1.26-.59,4,4,0,0,0,.31-1.54C178.9,306.83,181.38,303,176.17,302.1Z" transform="translate(-16.67 -20.24)"/><path class="cls-56" d="M182.5,285.46c-2.18-.37-4.94.21-6.57-2.13-12.13,1.19-24.16-1.22-36.29-1.13-4.94,0-2.8-5.48-2.86-8.79-2.54-13.13-2.84-26.51-3.55-39.78A785.84,785.84,0,0,0,123,140.27c-.66-3.77-1.34-7.72-4.47-10.55-1.71-1.54-3.63-2.63-6-2-2.76.78-2.66,3.2-2.54,5.39.49,9.13.8,18.27,1.64,27.36,2.4,25.85,4.67,51.7,5.31,77.66a1.13,1.13,0,0,1,.06.55c.35,1.41.37,2.85.6,4.34.31,2,.65,3.94.78,5.94.52,4.71-.48,9.63,1.11,14.19a.93.93,0,0,1,.38.76,1.92,1.92,0,0,0,0,.32l0,.1a1,1,0,0,0,0,.17,17.45,17.45,0,0,1,.55,1.69c.22,1.51.25,3,.52,4.55a25,25,0,0,1,.55,5.56,1.1,1.1,0,0,1,0,.57,3.21,3.21,0,0,1,0,1.58c0,.1,0,.19,0,.28a1,1,0,0,1,0,.44c0,1.23,0,2.45.07,3.68a.81.81,0,0,1-.08.42,1.12,1.12,0,0,1-.06.72c.11,2.49.33,5,.51,7.45.11,1.48.17,3,.31,4.62a1,1,0,0,1,.26.56,8.15,8.15,0,0,0,6.42,2.59c3.84-.17,7.7.27,11.55.27,4.16,0,6.91,0,8.8.43a27.16,27.16,0,0,0,4,.1c1.89-.14,3.64-.41,5.51-.48,5.93-2.06,11.27-.14,16.61,1.1a50.55,50.55,0,0,0,5.77,0c3.75-.35,8.94,1.45,9.11-5.09C190.63,290.16,188.47,286.47,182.5,285.46Z" transform="translate(-16.67 -20.24)"/><path class="cls-58" d="M227.47,228.59a30.52,30.52,0,0,1-30.26-30.26c0-16.38,14-30.3,30.35-30.24s30.4,14,30.33,30.34S244,228.55,227.47,228.59Z" transform="translate(-16.67 -20.24)"/><path class="cls-54" d="M584.78,370.42c17.28,0,34.57.27,51.84-.15,6-.14,7.43,1.91,7.3,7.52-.35,14.35-.41,28.73,0,43.08.21,7.72-4.76,6.18-9.23,6.37-4.78.2-8.6.14-8.23-6.64.5-9.23-.15-18.51.23-27.74.2-4.95-1.52-6.11-6.23-6.08-29.21.21-58.42-.09-87.63.28-6.59.08-7.55-2.53-7.41-8.12.13-5.42.14-9,7.55-8.71C550.2,370.83,567.49,370.42,584.78,370.42Z" transform="translate(-16.67 -20.24)"/><path class="cls-56" d="M230.41,271.85c-7.33,0-19.47-.07-31.61,0-2.89,0-5.77,0-6.24-3.35-.52-3.7,3.19-3.22,5.16-3.65a104.2,104.2,0,0,0,21.42-6.78,47.6,47.6,0,0,0,16.34-11.79c12.83-14.5,28.17-17.55,44.58-9.47,3.68,1.81,2.49,5,1.95,7.62-.79,3.79-.42,6.44,4.14,6.33,3.86-.09,4.43,2,4,5.12-.54,3.84-1.17,7.66-1.53,11.51-.25,2.7-1.86,2.67-4,3C268.19,272.59,251.68,270.7,230.41,271.85Z" transform="translate(-16.67 -20.24)"/><path class="cls-54" d="M447.17,408.76c13.36,0,26.73.13,40.08-.07,4.78-.07,6.2,1.66,6.18,6.44-.08,17.21.09,17.22-17.2,16.95-23.07-.36-46.15-.92-69.22-1-6,0-8.06-1.87-7.8-8,.81-19.21-1.83-15.55,15.91-15.83,10.68-.18,21.37,0,32.05,0Z" transform="translate(-16.67 -20.24)"/><path class="cls-54" d="M366.29,397.8c-22.83-1-45.67-2.11-68.51-3-5.12-.2-7.24-1.77-6.87-7.44,1-16.12.81-16.4,17.1-15.87,24.06.78,48.11,2,72.16,3,.73,0,1.73-.23,2.15.14,5.64,5.1,1.59,11.65,2.39,17.49.45,3.32-.78,6.25-5.28,6s-8.75-.05-13.13-.05Z" transform="translate(-16.67 -20.24)"/><path class="cls-54" d="M370.13,364.19c-23.5-1.36-47-2.86-70.53-4-4.92-.24-6.23-2.33-6.07-6.75.64-17.27.58-17.15,18.09-16.15,23,1.3,46,2.55,69.08,3.48,5.72.23,8.22,2,6.68,7.82-.13.47-.14,1-.28,1.43-1.41,4.72,2.17,11.42-2.66,14.05-3.74,2-9.47.4-14.31.4Z" transform="translate(-16.67 -20.24)"/><path class="cls-54" d="M199.79,366.86c23.54,1,47.08,2.07,70.63,3,3.62.14,5.09,1.23,5.25,5.09.77,18-1.06,19.36-18.82,18.16-20.36-1.36-40.79-1.72-61.18-2.54-14.6-.59-14.25-.61-14.25-14.89,0-7.22,2.08-10.39,9.63-9,2.82.53,5.82.09,8.74.09Z" transform="translate(-16.67 -20.24)"/><path class="cls-54" d="M418.8,343.35c24.25,1.42,48.5,2.93,72.76,4.19,4.24.22,5.9,1.11,5.57,5.91-1.21,17.54-1,17.65-18.69,16.83q-33.48-1.54-66.94-3.4c-9.35-.51-9.77-1.14-8.87-10.39C404,342.4,404,342.4,418.8,343.35Z" transform="translate(-16.67 -20.24)"/><path class="cls-54" d="M326.63,407.86c17,0,34,.1,51.05-.07,4.8,0,6.12,1.65,6,6.46-.45,17.16-.26,17.31-17.25,17-22.38-.37-44.75-1.13-67.12-1.37-5.23-.05-6.58-1.92-6.6-6.86-.05-16.76-.22-16.75,16.41-16.66,5.84,0,11.68,0,17.52,0Z" transform="translate(-16.67 -20.24)"/><path class="cls-54" d="M441.58,377.13c15.54.81,31.06,1.82,46.6,2.31,5,.16,6.78,1.6,6.46,6.78-1,16.29-.83,16.54-17.09,16-23.81-.77-47.61-2-71.42-2.83-4.6-.16-5.55-1.91-5.53-6.17.07-17.8-.07-17.83,17.66-17.12,7.77.32,15.54.77,23.32,1.16Z" transform="translate(-16.67 -20.24)"/><path class="cls-54" d="M277.35,346c-.3,12.38-.3,12.24-12.61,11.56q-35-1.94-70-3.57c-10.73-.52-10.74-.45-10.46-11.24.35-13.63.34-13.48,14.33-12.51q33.85,2.33,67.75,4.25C277.62,335.16,277.63,334.94,277.35,346Z" transform="translate(-16.67 -20.24)"/><path class="cls-56" d="M473.18,311.71c-19.89,0-39.78-.15-59.67.1-5.42.06-6.66-2.21-6.29-7,1.43-18.6-2.49-14.86,15.1-15.52,12.44-.47,24.15-2.28,35.13-8.48,5.67-3.21,10.08-2.4,14,4.29,5,8.5,10.2,17.33,19.63,22.21,1.53.79,3.94,1.81,3.16,4.3s-3.19,1.76-5,1.79c-5.34.08-10.69,0-16,0Z" transform="translate(-16.67 -20.24)"/><path class="cls-54" d="M444,465.38c-12.88,0-25.77-.18-38.66.1-4.78.1-6.19-1.45-6.26-6.24-.25-17.81-.42-17.76,17.21-17.92,21.89-.19,43.79-.32,65.69-.83,5.26-.12,7.22,1.09,7.2,6.76,0,16.8.21,16.83-16.71,16.93-9.49.05-19,0-28.47,0Z" transform="translate(-16.67 -20.24)"/><path class="cls-54" d="M413.48,475.23q8.38-.39,16.76-.76c1.21-.05,2.92-.53,3.57.08,5.89,5.48,1.36,12.65,2.83,18.91.79,3.38-1.46,4.16-4.22,4.28-26.48,1.11-53,3-79.44,3-9.33,0-3.28-9.68-4.72-14.73-.9-3.15-2-7.77,4.73-8,20.17-.65,40.32-1.87,60.48-2.86Z" transform="translate(-16.67 -20.24)"/><path class="cls-54" d="M338.24,467.64c-12.66,0-25.32-.22-38,.13-4.19.12-5.59-1.23-6-5.14-2.1-18.45-2.17-18.46,16.18-18.77,21.43-.35,42.86-.48,64.28-1.13,5.86-.18,8.24,1.57,8.67,7.49,1.18,16.29,1.37,16.26-15.17,16.32-5.11,0-10.23.16-15.34.2-4.87,0-9.74,0-14.62,0Z" transform="translate(-16.67 -20.24)"/><path class="cls-56" d="M307.24,185.82c.84,11.19,1.15,22.26-1.41,33.21a76.33,76.33,0,0,1-3.4,10.17c-1.23,3.16-3.82,4.34-7.07,3.75-7.89-1.43-15.8-2.75-23.6-4.53q-9.09-2.05-3.54-10.12c4.82-7,10.34-13.53,14.07-21.25,3.18-6.58,5.38-13-.33-19.63-1.44-1.67-1.67-4.51-2.08-6.88-1.28-7.46,1.65-10,8.8-7.76a18.76,18.76,0,0,1,2.69,1.15c4.23,2.1,11.39-1.53,12.54,6.74C304.63,175.78,306.11,180.77,307.24,185.82Z" transform="translate(-16.67 -20.24)"/><path class="cls-56" d="M591.4,356.88c19,0,38,.13,57-.1,4.94-.06,6.75,1.24,6.67,6.5-.29,19-.15,38,0,57,0,3.27-.6,6.44-4,6.53-3.78.1-4.91-3.21-4.91-6.71,0-15.34-.45-30.7.1-46,.24-6.79-2.14-7.95-8.27-7.9-35.08.27-70.16.16-105.24.06-3,0-7.62,1.78-7.53-3.9.07-4.9,3.7-5.48,7.76-5.46C552.42,356.94,571.91,356.9,591.4,356.88Z" transform="translate(-16.67 -20.24)"/><path class="cls-56" d="M342.65,222.86c-9.13,7.22-20.11,6.79-30.8,7.24-3.08.13-3.83-1.88-2.72-5a89.11,89.11,0,0,0,5-34.43c-.19-4.19-.1-8.11-2.24-11.83a28.65,28.65,0,0,1-2-4.7c-3.48-9.72-.48-13.41,9.44-11.64.48.08.93.35,1.4.4,17.27,1.61,16.28,5.32,16,20.55-.11,6.87-2.08,13.88,1.2,20.57Q340.32,213.45,342.65,222.86Z" transform="translate(-16.67 -20.24)"/><path class="cls-54" d="M573.59,427.19c-13.64,0-27.29-.4-40.91.18-7,.29-7.3-3-7.26-8.32s.13-9.09,7.55-9c27.51.42,55,.29,82.56.08,5.14,0,6.89,1.66,6.79,6.68-.19,9.88-.4,10.32-10,10.34C599.41,427.21,586.5,427.18,573.59,427.19Z" transform="translate(-16.67 -20.24)"/><path d="M159.71,470.47c0-13.25,0-13.42,13.65-13.13,3.75.08,9.14-2.69,10.56,4.19.24,1.14,2.1.88,3.3.66,1.63-.29,1.75-1.72,1.5-2.82-1.95-8.75,3.53-8.79,9.56-8.32,1.45.11,3-.25,4.37.07,2.55.6,7-1.95,7.29,2.08.22,3.76,3.72,9-2.88,11.84-3.3,1.44-1.8,15.88,1.44,18.21,4,2.91,1.73,7.08,1.9,10.65.17,3.76-3.11,2.88-5.39,3-2.91.09-5.86-.21-8.75.06-5.33.51-8.6-.76-7.51-7.05.47-2.74-.51-3.77-3.68-4.65a46.9,46.9,0,0,0-17.23-1.16c-7,.67-9.16-2-8.17-8.47A33.49,33.49,0,0,0,159.71,470.47Z" transform="translate(-16.67 -20.24)"/><path class="cls-54" d="M431.6,237.23c.15,1.22-.9,2.2-3.17,3-13.27,4.48-15.6,3.93-17.27-10.16-1.81-15.27-7.81-26.45-21-34.91-9.89-6.33-9-12.31.53-19.68,2-1.57,3.5-1.11,5.15.25,9,7.42,18.05,14.82,27,22.3a5.79,5.79,0,0,1,1.86,3C427,212.72,429.19,224.43,431.6,237.23Z" transform="translate(-16.67 -20.24)"/><path class="cls-56" d="M265.59,305.29c-20.53-1.28-41.07-2.46-61.57-4-2.54-.18-7.06,1.34-7-4s3.67-6.18,8-6.2c17.24-.06,34.49.23,51.7-1.52,6.55-.67,13.2-.45,17.44-6.8a1.61,1.61,0,0,1,.57-.45c4.61-2.51,10.39-5.11,14.34-1.92,3.26,2.64.42,8.56-.52,12.8-.66,2.94-2.82,5.54-2.86,8.87,0,3.11-2.57,3.12-4.75,3.15C275.8,305.34,270.69,305.29,265.59,305.29Z" transform="translate(-16.67 -20.24)"/><path class="cls-54" d="M456.21,229.56c-.91,6.11-6.74,3.69-10.18,5.25s-4.74-.47-5.38-3.73c-1.94-9.77-4.28-19.45-6.09-29.23A18.09,18.09,0,0,0,428,190.94c-7.75-6.66-15-13.88-22.81-20.5-4.86-4.13-1.44-6.67,1.17-9.44s4.52-6.77,9.29-2.31c9.07,8.47,18.48,16.58,27.79,24.79a14.49,14.49,0,0,1,4.74,8.68C450.58,204.54,453.44,216.84,456.21,229.56Z" transform="translate(-16.67 -20.24)"/><path class="cls-54" d="M257.86,411.77c2.43,0,4.87.18,7.28,0,4.19-.38,6.06.9,6.13,5.56s-1.38,5.67-5.76,5.88q-47.65,2.32-95.26,5.22c-4.72.28-7.15-.72-7.61-6-.48-5.53,2.38-5.7,6.5-5.89,29.58-1.37,59.15-2.92,88.73-4.41Z" transform="translate(-16.67 -20.24)"/><path class="cls-54" d="M405.49,241.43c.38,2.3-.59,3.39-2.81,4.27-11.41,4.55-14.92,3.18-16.81-8.53-1.52-9.4-4.83-16.89-13.52-21.75-2.67-1.5-7.2-3.75-6.07-7.29,1.51-4.73,5.58-8.4,9.29-11.89,1.25-1.17,2.78-.06,3.92.85q9.66,7.75,19.27,15.58c2.29,1.88,2.2,4.73,2.69,7.34Q403.44,230.72,405.49,241.43Z" transform="translate(-16.67 -20.24)"/><path class="cls-54" d="M171.88,370.56c0,12.17-.09,24.34.05,36.5,0,3.85-1,5.88-5.31,5.76-3.93-.1-6.58-.74-6.58-5.51q0-37.24-.34-74.47c0-4.71,2.75-4.83,6.19-4.94,3.93-.13,5.79,1.19,5.74,5.42-.16,12.41-.06,24.83-.06,37.24Z" transform="translate(-16.67 -20.24)"/><path class="cls-54" d="M549.4,389.79c5.83,0,11.66.19,17.47-.06,4.58-.21,5.84,1.52,5.71,5.36-.5,15.33,2.42,12.54-14.05,12.79-8.73.14-17.48-.15-26.21.11-4.77.14-7-.82-6.89-5.7.46-15.49-1.48-12.13,13.78-12.49C542.61,389.72,546,389.79,549.4,389.79Z" transform="translate(-16.67 -20.24)"/><path class="cls-54" d="M598.48,407.9c-5.83,0-11.65-.08-17.47.05-3.8.08-5.63-.89-5.85-4.74-.76-13.43-.92-13.42,14.14-13.42,9,0,18,.13,26.93-.06,4.14-.08,6,.79,6.14,5,.35,13.15.55,13.14-14.43,13.16Z" transform="translate(-16.67 -20.24)"/><path class="cls-57" d="M394.2,317c.94,5.89-1,8.13-7.45,7.72-30-1.93-60-3.4-90-5.05-3.35-.18-6.1-.52-5.72-5.35.43-5.54,3.94-5.27,7.65-5.05q24.6,1.44,49.19,3c9.32,1.56,18.76,1.32,28.1,2.09C382,314.86,388.45,314,394.2,317Z" transform="translate(-16.67 -20.24)"/><path class="cls-54" d="M457.3,493.79c-3.91-.58-9.49,2.5-12.72-.38-3.05-2.73.27-8.36-.66-12.61-1.21-5.56,1.18-7.5,6.44-7.7,11.19-.42,22.37-1,33.53-1.73,4.77-.33,6.57,1.5,6.64,6.16.27,18.1,1.63,14.16-13.64,15.05C470.57,492.94,464.26,493.35,457.3,493.79Z" transform="translate(-16.67 -20.24)"/><path class="cls-54" d="M134.83,208.26c-.76-9.42-1.3-18.39-2.28-27.31-.41-3.74-1.11-6.84,4.22-7,4.24-.14,8.24-1,8.72,5.4,1.07,14.53,2.62,29,3.94,43.53.55,6,1.22,12.08,1.49,18.13.37,8.43-6.78,3.76-10.23,5.23-3.68,1.58-2.84-2.69-2.83-4.51C138,230.29,134.18,219.24,134.83,208.26Z" transform="translate(-16.67 -20.24)"/><path class="cls-56" d="M133.88,130.88c1.17-3.52-6.85-3.11-3.34-7.21,3.14-3.65,7.62-2.17,10.81-.27,11.52,6.84,24.28,7.88,37.1,9.53,13.73,1.77,20.9,17.58,13.75,29.24A36.72,36.72,0,0,1,174,177.3c-2,.79-5,1.1-6-.91-1.46-2.67,1.66-3.5,3.33-4.54,6.32-4,11.82-8.62,14.43-15.89,2.37-6.61.86-10.14-5.69-12.48a113.77,113.77,0,0,0-29-6.59C145.6,134.05,140.3,130.86,133.88,130.88Z" transform="translate(-16.67 -20.24)"/><path class="cls-57" d="M472.5,329.13c7.47-.18,14.86.62,22.24-.44,2.13-7,1.07-9.47-4.25-9.58-26.23-.5-52.32-4.13-78.61-3.45-3.05.08-6.09,0-6.44,4.06-.37,4.37,2.74,5.45,6.09,5.47,20.23.1,40.25,3.53,60.45,4.11A.87.87,0,0,1,472.5,329.13Z" transform="translate(-16.67 -20.24)"/><path class="cls-57" d="M249,306.83c-16.25-1.17-32.52-2.06-48.79-3.11-3.14-.2-5.26.65-5.24,4.29,0,2.76-1.34,6.31,3.68,5.95l2.12.43c7.57,1.76,15.31.27,22.91,1.2,1.86.23,4-.1,5.72.51,2.56,0,5.11,0,7.67.12,2.2.08,4.38.35,6.57.55l1.34.05c9.95.57,19.9,1.17,29.85,1.7,8.74.46,8.75.43,9.48-8.65C272.5,308.85,260.75,307.67,249,306.83Z" transform="translate(-16.67 -20.24)"/><path class="cls-54" d="M312.2,502.07c-.25,0-.49,0-.73,0-18.07,0-14.42,3.15-15.45-15.22-.21-3.74,1.13-5.27,4.88-5.41q15.64-.6,31.27-1.58c3.83-.24,5.61.78,6,5.05,1.4,14.85,1.57,14.86-12.91,16.23-4.35.41-8.72.64-13.08,1Z" transform="translate(-16.67 -20.24)"/><path class="cls-54" d="M156.72,199.41c-1-4.46.54-7.26,6.61-7.68s6.46,2.83,6.83,7.49c1.28,16.24,2.73,32.47,4.57,48.66.79,6.93-1.76,9.08-8.34,8.56-3.28-.26-4.72-1.07-5-4.57C160,234.67,158.35,217.48,156.72,199.41Z" transform="translate(-16.67 -20.24)"/><path class="cls-54" d="M303.19,118.47c0-3.89,0-7.78,0-11.67.08-9.4.23-9.39,9.93-8.93,3.35.16,4.8,1.17,4.89,4.64.29,10.93.65,21.87,1.28,32.79.43,7.47-5,4.81-8.52,5.13-3.75.35-8.17,1.27-7.87-5.17.26-5.59.05-11.19.05-16.79Z" transform="translate(-16.67 -20.24)"/><path class="cls-54" d="M344.65,219.86Q342.33,210.46,340,201c.8-8.9,2.18-17.76,1.74-26.75-.33-6.59,4.86-3.76,7.78-4.06,3.1-.33,6.56-.13,6.05,4.82-.57,5.53-.4,11.17-1.39,16.61a30.66,30.66,0,0,0,1,15.65C358.71,217.87,356.11,220.86,344.65,219.86Z" transform="translate(-16.67 -20.24)"/><path class="cls-54" d="M176.93,281.33c-12.13,1.19-24.16-1.22-36.29-1.13-4.94,0-2.8-5.48-2.86-8.79,3.36-7.3,9.12-4.51,15.69-3.39,7.37,1.25,15-.89,22.43-.18,2.52.24,7-1.12,6.24,3.59C181.56,275,184.22,281.05,176.93,281.33Z" transform="translate(-16.67 -20.24)"/><path class="cls-54" d="M382,263.28c-.92,3.69-4.73,4.31-7.38,6.17s-3.87-.24-5.15-2.14c-5.32-7.84-10.63-15.69-16-23.46-1.65-2.37-2.34-4.55.85-5.85,3-1.22,5.88-6.88,9.13-2.8,7.62,9.59,13,18.93,18.09,26.45A7.24,7.24,0,0,1,382,263.28Z" transform="translate(-16.67 -20.24)"/><path class="cls-54" d="M446.92,276.35c.87,4.64-.65,6.68-5.6,7.07a236.7,236.7,0,0,0-25.15,3.43c-3.12.58-5.7,1.13-5.64-2.73.05-3.19-4.07-7.47,2.07-9.63,4-1.41,8.14-1.28,12.2-2,5-.88,10.06-1.63,15.1-2.42S448.34,270.23,446.92,276.35Z" transform="translate(-16.67 -20.24)"/><path class="cls-54" d="M306.59,108.49c-9.75,2-20.34-.25-31-.1-7.87.12-12.62-2.63-12.32-8.54.17-3.36,2.14-5.11,7.2-4.51,11.34,1.35,22.6-.5,33.91-.23,10.51.26,15.77,5,12.74,11.63C315.28,110.84,311,108.74,306.59,108.49Z" transform="translate(-16.67 -20.24)"/><path class="cls-54" d="M384.91,147c-.16,2.69-2.18,3.33-3.87,4.2-6.93,3.54-13.94,6.94-20.81,10.59-3.27,1.74-5.45,1.11-7.19-2.06s-2.52-5.86,1.25-8.08c6.7-3.93,13.33-8,20.09-11.83,1.75-1,3.7-3.33,5.87-1.46C382.88,140.65,383.74,144.12,384.91,147Z" transform="translate(-16.67 -20.24)"/><path class="cls-54" d="M170.4,164.81c2.59,5.44-2.45,5.25-6,6.15-4.41,1.12-7-.47-7.36-5.22a44.32,44.32,0,0,0-.64-5.76c-.8-4-3-8,3.7-9.37,6.16-1.25,9.09.63,9.37,6.89C169.54,159.66,170,161.81,170.4,164.81Z" transform="translate(-16.67 -20.24)"/><path class="cls-54" d="M133.88,134.88c6.42,0,11.72,3.17,17.14,6a12.45,12.45,0,0,1-4.49,11.46c-1.23,1-15.65-4.77-16.42-6.6C128.16,141.12,131.65,138.17,133.88,134.88Z" transform="translate(-16.67 -20.24)"/><path class="cls-54" d="M453.75,250.29c-.91,1-1.81,2.05-2.69,3.07-3.14.55-4.08,7.07-8.74,3.44-2.35-1.83-6.91-3-6.12-6.2.85-3.44,3.9-8.52,6.5-8.86C447.87,241.07,452.17,244.67,453.75,250.29Z" transform="translate(-16.67 -20.24)"/><path class="cls-54" d="M294.83,241.83c-2.45,1.75,3.11,7.86-5.12,7.54-2.72-.11-7.17.12-6.7-4.53.29-2.93-.35-7.63,4-7.94C289.64,236.71,294.07,236.51,294.83,241.83Z" transform="translate(-16.67 -20.24)"/><path class="cls-45" d="M117.86,256.32a.92.92,0,0,1,.42,1.35,1.58,1.58,0,0,0-.14.36c0,.05,0,.1,0,.16a16,16,0,0,0,1,4.68,1,1,0,0,1,.12.2.85.85,0,0,1,.26.11c-1.59-4.56-.59-9.48-1.11-14.19,0,.32,0,.63,0,.95a.86.86,0,0,1-.45.81.77.77,0,0,1,0,1s0,.05,0,.07c0,1.19.07,2.37.07,3.56a.37.37,0,0,1,0,.09h0A1,1,0,0,1,117.86,256.32Z" transform="translate(-16.67 -20.24)"/><path class="cls-45" d="M116.55,256.66l0,0a.89.89,0,0,1-.45-.62c-.12-.57-.27-1.2-.36-1.84a14.12,14.12,0,0,0,.3,3.79A3.67,3.67,0,0,1,116.55,256.66Z" transform="translate(-16.67 -20.24)"/><path class="cls-54" d="M296.5,267.07c-1.24.94-2.6.16-3.92.07s-1.17-1.06-1.09-2c.15-1.86.49-5.7.9-11.54.08-1.17.42-2,1.76-1.64s3.62-.68,3.61,1.44c0,4.34-.63,8.68-1,13A2.62,2.62,0,0,1,296.5,267.07Z" transform="translate(-16.67 -20.24)"/><path class="cls-54" d="M309.3,265.41c1.84,1.45,5.36,0,6.38,4.06.48,1.94,1.56,3-1.82,3.67-2.13.39-5.31,1.81-6.43-1.18C306.75,270.13,305.7,267,309.3,265.41Z" transform="translate(-16.67 -20.24)"/><rect class="cls-54" x="114.33" y="314.76" width="22" height="6"/><rect class="cls-54" x="130.5" y="334.5" width="23" height="6" transform="translate(462.83 175.26) rotate(90)"/><path d="M152.58,326.5v22H131.5v-22h21.08m.5-.5H131v23h22.08V326Z" transform="translate(-16.67 -20.24)"/><rect class="cls-59" x="210.58" y="460.01" width="21.58" height="22.5"/><path class="cls-59" d="M248.58,480.5v22H227.5v-22h21.08m.5-.5H227v23h22.08V480Z" transform="translate(-16.67 -20.24)"/><text class="cls-60" transform="translate(212.37 481.26) scale(1.19 1.33)">P</text><rect class="cls-59" x="7.58" y="103.01" width="21.58" height="22.5"/><path class="cls-59" d="M45.58,123.5v22H24.5v-22H45.58m.5-.5H24v23H46.08V123Z" transform="translate(-16.67 -20.24)"/><text class="cls-60" transform="translate(9.37 124.26) scale(1.19 1.33)">P</text><rect class="cls-59" x="594.58" y="412.01" width="21.58" height="22.5"/><path class="cls-59" d="M632.58,432.5v22H611.5v-22h21.08m.5-.5H611v23h22.08V432Z" transform="translate(-16.67 -20.24)"/><text class="cls-60" transform="translate(596.37 433.26) scale(1.19 1.33)">P</text><rect class="cls-61" x="558.83" y="413.26" width="21" height="21"/><path d="M596,434v20H576V434h20m1-1H575v22h22V433Z" transform="translate(-16.67 -20.24)"/><line class="cls-62" x1="568.87" y1="433.84" x2="568.87" y2="413.22"/><path d="M578,438.51h5s1.12.19,1.12,1.21V445a.76.76,0,0,1-.65.46c-.47,0-.65-.55-.65-.55v-4.46a.36.36,0,0,0-.28-.18.34.34,0,0,0-.28.18v12.16s-.19.65-.74.65a.72.72,0,0,1-.75-.65V446h-.55v6.59s-.28.65-.74.65a.67.67,0,0,1-.75-.65V440.55s-.09-.27-.28-.27-.27,0-.27.46v4.18a.67.67,0,0,1-.65.55c-.56,0-.75-.27-.75-.65v-5.1S577.11,438.51,578,438.51Z" transform="translate(-16.67 -20.24)"/><path d="M582.07,437a1.5,1.5,0,0,1-3-.43,1.5,1.5,0,0,1,3,.43Z" transform="translate(-16.67 -20.24)"/><path d="M588.87,438.5h4.25s.83.09,1,.74,1.48,5.26,1.48,5.26a.57.57,0,0,1-.37.73c-.55.19-.74,0-.92-.46s-1.2-4.33-1.2-4.33-.09-.28-.28-.19-.28.09-.18.56,1.56,6.64,1.56,6.64,0,.27-.18.27h-1.38v4.8s-.1.65-.65.65-.74-.65-.74-.65v-4.8h-.55v4.8a.75.75,0,0,1-.74.65.76.76,0,0,1-.74-.65v-4.8H588s-.28.1-.18-.36,1.57-6.83,1.57-6.83,0-.28-.19-.28-.28,0-.37.28-1.2,4.33-1.2,4.33-.18.74-.83.47-.46-.65-.37-1,1.48-5.16,1.48-5.16A1.31,1.31,0,0,1,588.87,438.5Z" transform="translate(-16.67 -20.24)"/><path d="M592.4,436.93s-.17,1.4-1.37,1.33a1.41,1.41,0,0,1-1.37-1.5,1.38,1.38,0,1,1,2.74.17Z" transform="translate(-16.67 -20.24)"/><rect class="cls-61" x="246.83" y="428.26" width="21" height="21"/><path d="M284,449v20H264V449h20m1-1H263v22h22V448Z" transform="translate(-16.67 -20.24)"/><line class="cls-62" x1="256.87" y1="448.84" x2="256.87" y2="428.22"/><path d="M266,453.51h5s1.12.19,1.12,1.21V460a.76.76,0,0,1-.65.46c-.47,0-.65-.55-.65-.55v-4.46a.36.36,0,0,0-.28-.18.34.34,0,0,0-.28.18v12.16s-.19.65-.74.65a.72.72,0,0,1-.75-.65V461h-.55v6.59s-.28.65-.74.65a.67.67,0,0,1-.75-.65V455.55s-.09-.27-.28-.27-.27,0-.27.46v4.18a.67.67,0,0,1-.65.55c-.56,0-.75-.27-.75-.65v-5.1S265.11,453.51,266,453.51Z" transform="translate(-16.67 -20.24)"/><path d="M270.07,452a1.5,1.5,0,0,1-3-.43,1.5,1.5,0,1,1,3,.43Z" transform="translate(-16.67 -20.24)"/><path d="M276.87,453.5h4.25s.83.09,1,.74,1.48,5.26,1.48,5.26a.57.57,0,0,1-.37.73c-.55.19-.74,0-.92-.46s-1.2-4.33-1.2-4.33-.09-.28-.28-.19-.28.09-.18.56,1.56,6.64,1.56,6.64,0,.27-.18.27h-1.38v4.8s-.1.65-.65.65-.74-.65-.74-.65v-4.8h-.55v4.8a.75.75,0,0,1-.74.65.76.76,0,0,1-.74-.65v-4.8H276s-.28.1-.18-.36,1.57-6.83,1.57-6.83,0-.28-.19-.28-.28,0-.37.28-1.2,4.33-1.2,4.33-.18.74-.83.47-.46-.65-.37-1,1.48-5.16,1.48-5.16A1.31,1.31,0,0,1,276.87,453.5Z" transform="translate(-16.67 -20.24)"/><path d="M280.4,451.93s-.17,1.4-1.37,1.33a1.41,1.41,0,0,1-1.37-1.5,1.38,1.38,0,1,1,2.74.17Z" transform="translate(-16.67 -20.24)"/><rect class="cls-61" x="294.83" y="216.26" width="21" height="21"/><path d="M332,237v20H312V237h20m1-1H311v22h22V236Z" transform="translate(-16.67 -20.24)"/><line class="cls-62" x1="304.87" y1="236.84" x2="304.87" y2="216.22"/><path d="M314,241.51h5s1.12.19,1.12,1.21V248a.76.76,0,0,1-.65.46c-.47,0-.65-.55-.65-.55v-4.46a.36.36,0,0,0-.28-.18.34.34,0,0,0-.28.18v12.16s-.19.65-.74.65a.72.72,0,0,1-.75-.65V249h-.55v6.59s-.28.65-.74.65a.67.67,0,0,1-.75-.65V243.55s-.09-.27-.28-.27-.27,0-.27.46v4.18a.67.67,0,0,1-.65.55c-.56,0-.75-.27-.75-.65v-5.1S313.11,241.51,314,241.51Z" transform="translate(-16.67 -20.24)"/><path d="M318.07,240a1.5,1.5,0,0,1-3-.43,1.5,1.5,0,1,1,3,.43Z" transform="translate(-16.67 -20.24)"/><path d="M324.87,241.5h4.25s.83.09,1,.74,1.48,5.26,1.48,5.26a.57.57,0,0,1-.37.73c-.55.19-.74,0-.92-.46s-1.2-4.33-1.2-4.33-.09-.28-.28-.19-.28.09-.18.56,1.56,6.64,1.56,6.64,0,.27-.18.27h-1.38v4.8s-.1.65-.65.65-.74-.65-.74-.65v-4.8h-.55v4.8a.75.75,0,0,1-.74.65.76.76,0,0,1-.74-.65v-4.8H324s-.28.1-.18-.36,1.57-6.83,1.57-6.83,0-.28-.19-.28-.28,0-.37.28-1.2,4.33-1.2,4.33-.18.74-.83.47-.46-.65-.37-1,1.48-5.16,1.48-5.16A1.31,1.31,0,0,1,324.87,241.5Z" transform="translate(-16.67 -20.24)"/><path d="M328.4,239.93s-.17,1.4-1.37,1.33a1.41,1.41,0,0,1-1.37-1.5,1.38,1.38,0,1,1,2.74.17Z" transform="translate(-16.67 -20.24)"/><polyline class="cls-6" points="599.12 116.98 634.64 82.37 620.41 108.12 601.82 122.02"/><polyline class="cls-6" points="600.94 116.83 600.16 52.59 610.81 96.42"/><polygon class="cls-6" points="600.41 185.06 588.81 140.47 595.9 128.59 602.25 120.42 600.41 185.06"/><polyline class="cls-6" points="600.25 125.08 566.2 154.11 579.57 130.68 597.49 119.67"/><polygon class="cls-6" points="532.49 119.09 577.99 108.59 590.41 114.1 598.99 119.09 532.49 119.09"/><polyline class="cls-6" points="595.77 116.57 567.16 85 590.18 96.79 601.05 113.62"/><polygon class="cls-6" points="665.93 119.12 620.72 130.79 608.17 125.61 599.46 120.84 665.93 119.12"/><polyline class="cls-6" points="603.79 121.19 633.99 154.09 610.57 141.16 598.79 123.85"/><path class="cls-17" d="M612.43,131.38l1.51-.38a9.75,9.75,0,0,1,8.12.88l-.08,0c2.88,1.69,4.41,4.5,5.67,7.53l0,3.34c-1.73,2.52-2.93,5.53-5.92,6.85a9.63,9.63,0,0,1-9.09,0c-2.58-1.6-4.79-3.48-5-6.94a7.28,7.28,0,0,0-.87-4A29.73,29.73,0,0,1,612.43,131.38Z" transform="translate(-16.67 -20.24)"/><path class="cls-8" d="M627.65,139.38c-2.11-2.32-3.25-5.46-5.67-7.53C625.78,132.77,627,135.82,627.65,139.38Z" transform="translate(-16.67 -20.24)"/><path class="cls-8" d="M607.61,142.63a18.42,18.42,0,0,0,5,6.94C609.2,148.69,607.16,146.66,607.61,142.63Z" transform="translate(-16.67 -20.24)"/><path class="cls-8" d="M612.43,131.38c-1.81,2.5-3.36,5.23-5.69,7.28C607.65,135.38,609.24,132.69,612.43,131.38Z" transform="translate(-16.67 -20.24)"/><path class="cls-8" d="M621.75,149.57l5.92-6.85C626.6,145.86,625.53,149,621.75,149.57Z" transform="translate(-16.67 -20.24)"/><path class="cls-8" d="M622.06,131.88a32.71,32.71,0,0,0-8.12-.88C616.82,129.46,619.55,129.56,622.06,131.88Z" transform="translate(-16.67 -20.24)"/><path class="cls-63" d="M621.25,141.32c-.5,2.48-1.83,4.16-4.32,3.93a3.83,3.83,0,0,1-3.66-4.53,3.75,3.75,0,0,1,4-3.75C619.77,137.06,621,138.75,621.25,141.32Z" transform="translate(-16.67 -20.24)"/><path class="cls-8" d="M607.82,136q0,4.62-.08,9.24C606.55,142.17,605.35,139.08,607.82,136Z" transform="translate(-16.67 -20.24)"/><path class="cls-8" d="M611.16,148.47l8.56,2.12C616.59,151.13,613.45,151.67,611.16,148.47Z" transform="translate(-16.67 -20.24)"/><path class="cls-8" d="M616.05,150.41l8.45-2.6C622,149.9,619.55,152,616.05,150.41Z" transform="translate(-16.67 -20.24)"/><path class="cls-8" d="M626.49,145.68c.16-3.08.31-6.15.47-9.23C628,139.6,629.09,142.74,626.49,145.68Z" transform="translate(-16.67 -20.24)"/><path class="cls-8" d="M618.1,130.93l-8.47,2.5C612.13,131.37,614.62,129.3,618.1,130.93Z" transform="translate(-16.67 -20.24)"/><text class="cls-64" transform="translate(530.17 123.25) rotate(-90)">N</text><text class="cls-64" transform="translate(674.17 122.81) rotate(-90)">S</text><text class="cls-64" transform="translate(604.03 49.8) rotate(-90)">Ø</text><text class="cls-64" transform="translate(604.03 195.99) rotate(-90)">W</text><text class="cls-65" transform="translate(562.42 87.16) rotate(-37)">NØ</text><text class="cls-65" transform="translate(630.9 79.81) rotate(47)">SØ</text><text class="cls-65" transform="translate(638.95 150.82) rotate(139)">SW</text><text class="cls-66" transform="translate(570.52 159.93) rotate(-131)">N<tspan class="cls-67" x="5.63" y="0">W</tspan></text><text class="cls-64" transform="translate(13.44 94.04) rotate(1)">GRØ<tspan class="cls-68" x="21.02" y="0">N</tspan><tspan class="cls-69" x="28.26" y="0">V</tspan><tspan x="34.52" y="0">EJ</tspan></text><text class="cls-64" transform="translate(84.81 177.22) rotate(85)">GRØ<tspan class="cls-68" x="21.02" y="0">N</tspan><tspan class="cls-70" x="28.26" y="0">V</tspan><tspan x="34.33" y="0">ANGEN</tspan></text><path class="cls-55" d="M398.29,291.08s-3.92,2.15-2.85,4.11,4.37,9.85,3.49,12.88-3.44,15.14-2.4,16.1.19,5,.19,5l9-.34s-2.34-8.92-.64-17-.64-17-.64-17l-.15-4Z" transform="translate(-16.67 -20.24)"/></svg>